<?xml version="1.0" encoding="utf-8"?>
<!-- Generator: Adobe Illustrator 21.0.2, SVG Export Plug-In . SVG Version: 6.00 Build 0)  -->
<svg version="1.1" id="Logos" xmlns="http://www.w3.org/2000/svg" xmlns:xlink="http://www.w3.org/1999/xlink" x="0px" y="0px"
	 viewBox="0 0 285.1 62.1" style="enable-background:new 0 0 285.1 62.1;" xml:space="preserve">
<style type="text/css">
	.st0{fill:#4E585A;}
	.st1{fill:#6EBE4C;}
</style>
<title>logo</title>
<g id="Layer_2">
	<g>
		<path class="st0" d="M78,47.2V27.1h-4.7V24H78v-8.3h3.5V24h5.4v3.1h-5.4v20.1C81.5,47.2,78,47.2,78,47.2z"/>
		<path class="st0" d="M93.7,14.7v12.9c0.9-1.1,1.9-2.1,3.1-2.9c1.2-0.8,2.6-1.1,4.1-1.1s2.9,0.2,4,0.6c1.1,0.4,2.1,1.1,2.9,1.9
			c1.9,1.9,2.9,4.4,2.9,7.5v13.5h-3.5V33.8c0-2.1-0.6-3.9-1.8-5.1c-1.2-1.3-2.8-1.9-4.7-1.9c-1.9,0-3.6,0.6-5,1.9
			c-1.4,1.4-2.1,3-2.1,5.1v13.4h-3.5V14.7H93.7z"/>
		<path class="st0" d="M116.3,24h3.5v23.2h-3.5V24z"/>
		<path class="st0" d="M129.1,24v3.6c0.9-1.1,1.9-2.1,3.1-2.9c1.2-0.8,2.6-1.1,4.1-1.1s2.9,0.2,4,0.6c1.1,0.4,2.1,1.1,2.9,1.9
			c1.9,1.9,2.9,4.4,2.9,7.5v13.5h-3.5V33.8c0-2.1-0.6-3.9-1.8-5.1c-1.2-1.3-2.8-1.9-4.7-1.9c-1.9,0-3.6,0.6-5,1.9
			c-1.4,1.4-2.1,3-2.1,5.1v13.4h-3.4V24H129.1z"/>
		<path class="st0" d="M169.9,27.7V24h3.5v22.5c0,3.4-0.9,5.9-2.9,7.6c-1.9,1.8-4.5,2.6-7.7,2.6c-3.2,0-5.7-0.6-7.6-1.9
			c-1.8-1.2-3.1-2.9-3.7-4.9h3.9c1,2.4,3.2,3.6,6.8,3.6c2.7,0,4.6-0.6,5.9-1.9c1.2-1.2,1.8-3.1,1.8-5.5v-3.2
			c-1.9,2.8-4.6,4.1-8.3,4.1c-3.4,0-6.1-1.1-8.1-3.4c-2.1-2.2-3.1-5-3.1-8.4c0-3.4,1-6.1,3.1-8.4c2.1-2.3,4.9-3.4,8.4-3.4
			C165.3,23.6,168.1,25,169.9,27.7z M162.1,44.1c1.3,0,2.4-0.2,3.4-0.6c0.9-0.4,1.9-1.1,2.6-1.9c1.4-1.6,2.1-3.6,2.1-6.1
			s-0.7-4.5-2.1-6.1c-1.5-1.6-3.5-2.5-5.9-2.5c-2.5,0-4.5,0.9-6,2.5c-1.4,1.6-2.2,3.7-2.2,6.1s0.7,4.5,2.2,6.1
			C157.6,43.2,159.6,44.1,162.1,44.1z"/>
		<path class="st0" d="M193.8,28.7L188,47.2h-4L176.7,24h3.7l5.6,18.9l5.9-18.9h3.8l5.9,18.9l5.6-18.9h3.7l-7.3,23.2h-4L193.8,28.7z
			"/>
		<path class="st0" d="M223.6,23.6c3.5,0,6.3,1.1,8.4,3.5c2.1,2.2,3.1,5.1,3.1,8.5s-1,6.3-3.1,8.5c-2.1,2.3-5,3.5-8.4,3.5
			c-3.5,0-6.3-1.1-8.4-3.5c-2.1-2.2-3.1-5.1-3.1-8.5s1-6.3,3.1-8.5C217.4,24.8,220.1,23.6,223.6,23.6z M223.6,44.4
			c2.5,0,4.5-0.9,5.9-2.6c1.4-1.6,2.1-3.7,2.1-6.2s-0.7-4.6-2.1-6.2c-1.4-1.7-3.4-2.6-5.9-2.6c-2.5,0-4.5,0.9-5.9,2.6
			c-1.4,1.6-2.1,3.7-2.1,6.2s0.7,4.6,2.1,6.2C219.1,43.6,221.1,44.4,223.6,44.4z"/>
		<path class="st0" d="M251.9,23.6v3.5h-0.4c-2.5,0-4.6,1-6.1,3c-1.5,1.9-2.2,4.2-2.2,6.9v10.2h-3.5V24h3.5v5.7
			c0.7-2.4,2.4-4.2,4.9-5.4c1-0.5,2.3-0.7,3.7-0.7H251.9z"/>
		<path class="st0" d="M266.7,35.3l9,12h-4.4l-6.6-9.5l-6.6,9.5h-4.4l8.9-12l-8.4-11.2h4.4l6,8.8l5.9-8.8h4.4L266.7,35.3z"/>
		<path class="st0" d="M281.4,24.5c0.5,0,1,0.1,1.4,0.3c0.4,0.2,0.9,0.4,1.2,0.8s0.6,0.7,0.8,1.2c0.2,0.4,0.3,0.9,0.3,1.4
			c0,0.5-0.1,1-0.3,1.4s-0.4,0.9-0.8,1.1c-0.4,0.4-0.7,0.6-1.2,0.8c-0.4,0.2-0.9,0.3-1.4,0.3s-1-0.1-1.4-0.3
			c-0.4-0.2-0.9-0.4-1.1-0.8c-0.4-0.4-0.6-0.7-0.8-1.1c-0.2-0.4-0.3-0.9-0.3-1.4c0-0.5,0.1-1,0.3-1.4s0.4-0.9,0.8-1.2
			s0.7-0.6,1.1-0.8C280.4,24.6,280.9,24.5,281.4,24.5z M281.4,31.4c0.9,0,1.6-0.3,2.3-0.9c0.3-0.3,0.5-0.6,0.7-1
			c0.1-0.4,0.2-0.8,0.2-1.2s-0.1-0.9-0.2-1.2c-0.1-0.4-0.4-0.7-0.7-1c-0.6-0.6-1.4-0.9-2.3-0.9c-0.9,0-1.6,0.3-2.2,0.9
			c-0.6,0.6-0.9,1.4-0.9,2.3c0,0.4,0.1,0.9,0.2,1.2c0.1,0.4,0.4,0.7,0.7,1C279.7,31.1,280.5,31.4,281.4,31.4z M283.2,27.4
			c0,0.2-0.1,0.4-0.2,0.6c-0.1,0.2-0.4,0.4-0.6,0.4c0.4,0.1,0.6,0.4,0.7,1c0,0.1,0,0.3,0,0.4v0.5h-0.7v-0.4c0-0.3,0-0.5-0.1-0.6
			c-0.1-0.3-0.4-0.4-0.7-0.4h-1.1v1.5h-0.8v-4.1h1.8c0.6,0,1,0.1,1.3,0.4C283.1,26.7,283.2,27,283.2,27.4z M281.5,28.1
			c0.3,0,0.6-0.1,0.7-0.1c0.2-0.1,0.3-0.3,0.3-0.5s-0.1-0.4-0.2-0.5c-0.1-0.1-0.4-0.1-0.8-0.1h-0.9v1.4L281.5,28.1L281.5,28.1z"/>
	</g>
	<circle class="st0" cx="118" cy="17.9" r="2.3"/>
	<g id="XMLID_19_">
		<polygon id="XMLID_27_" class="st1" points="29.7,30 51.4,42.6 51.4,17.4 		"/>
		<polygon id="XMLID_23_" class="st0" points="25.7,27.7 49.5,14 25.7,0.3 1.9,14 		"/>
		<polygon id="XMLID_21_" class="st1" points="21.7,30 0,17.4 0,42.6 		"/>
		<polygon id="XMLID_20_" class="st0" points="25.7,32.3 1.9,46 25.7,59.7 49.5,46 		"/>
	</g>
</g>
</svg>
