<?xml version="1.0" encoding="utf-8"?>
<!-- Generator: Adobe Illustrator 21.0.0, SVG Export Plug-In . SVG Version: 6.00 Build 0)  -->
<svg version="1.1" id="Layer_1" xmlns="http://www.w3.org/2000/svg" xmlns:xlink="http://www.w3.org/1999/xlink" x="0px" y="0px"
	 viewBox="0 0 137.8 89" style="enable-background:new 0 0 137.8 89;" xml:space="preserve">
<style type="text/css">
	.st0{fill:#D1D3D4;stroke:#D1D3D4;stroke-width:2;stroke-linecap:round;stroke-miterlimit:10;}
	.st1{fill:none;stroke:#808184;stroke-width:2;stroke-linecap:round;stroke-miterlimit:10;}
	.st2{fill:none;stroke:#808184;stroke-width:2;stroke-miterlimit:10;}
</style>
<title>Illustration_1hint</title>
<path class="st0" d="M45.1,56.1c1.5,0.8,3.1,1.2,4.7,1.5c6.2,1.2,13.5,1.3,16.7-2.6c1.7-2.1,2.6-4.2,4-4.3c1.4,0.1,2,1.8,3.7,3.9
	c3.1,4,10.5,3.8,16.7,2.6c1.6-0.3,3.2-0.7,4.7-1.5c3.6-1.9,1.2,3.7,2.1-0.3l0.1-0.4C96.4,62.3,84.7,85,71,85
	c-14.3,0-26.6-21.6-27.3-29.1"/>
<path class="st0" d="M94.1,19.4c-14.6-3.2-14.3-2.2-17.6-2.4c-1.8-0.1-3.6-0.1-3.6-0.1c-1.1,0-3.1,0-5.7,0.1c-1.6,0.1-5,0.3-9.3,0.9
	c-3.7,0.5-6.4,1.1-8.2,1.4c-2.9,0.6,4-1.2-0.3,0l0.4-0.4c8.4-15.9,35.9-17.9,44,0L94.1,19.4z"/>
<g>
	<path class="st1" d="M70.1,19.6"/>
	<path class="st1" d="M71.3,49.8c-1.4,0.1-2.3,2.2-4,4.3c-3.1,4-10.5,3.8-16.7,2.6c-1.6-0.3-3.2-0.7-4.7-1.5
		c-3.6-1.9-5.9-5.9-6.9-10c-0.9-4.1,0.1-20.6,4.9-23.8"/>
	<path class="st1" d="M105.4,27.4"/>
	<path class="st1" d="M42,27.4"/>
	<path class="st1" d="M66,69.5c0,0,6,2.9,11.3-0.2"/>
	<path class="st1" d="M105.4,26.7"/>
	<path class="st1" d="M71.3,49.8c1.4,0.1,2,1.8,3.7,3.9c3.1,4,10.5,3.8,16.7,2.6c1.6-0.3,3.2-0.7,4.7-1.5c3.6-1.9,5.9-5.9,6.9-10
		c0.9-4.1-0.6-18.5-3-23.3"/>
	<path class="st1" d="M38.4,22.8c22.2-6.7,42.1-7.5,66.1,0"/>
	<path class="st1" d="M41.6,28.4c16.1-4.7,40.2-7.4,59.6,0.4"/>
	<path class="st1" d="M38.4,22.8c-4.9,5.4-4.6,18.6-4.1,20.4"/>
	<path class="st1" d="M38.8,43c-3.1,1.2-1.9,0.6-4.5,0.2"/>
	<path class="st1" d="M104.5,22.8c2.1-0.5,4.3,18.5,3.7,20.4"/>
	<path class="st1" d="M103.7,43c3.1,1.2,2,0.6,4.6,0.2"/>
</g>
<path class="st1" d="M69.2,22.2"/>
<path class="st1" d="M104.5,30.1"/>
<path class="st1" d="M41.2,30.1"/>
<path class="st1" d="M104.5,29.4"/>
<path class="st2" d="M38.9,24.6"/>
</svg>
