<?xml version="1.0" encoding="utf-8"?>
<!-- Generator: Adobe Illustrator 21.0.0, SVG Export Plug-In . SVG Version: 6.00 Build 0)  -->
<svg version="1.1" id="Layer_1" xmlns="http://www.w3.org/2000/svg" xmlns:xlink="http://www.w3.org/1999/xlink" x="0px" y="0px"
	 viewBox="0 0 137.8 154" style="enable-background:new 0 0 137.8 154;" xml:space="preserve">
<style type="text/css">
	.st0{fill:none;}
	.st1{fill:none;stroke:#808285;stroke-miterlimit:10;}
	.st2{fill:none;stroke:#D1D3D4;stroke-miterlimit:10;}
	.st3{opacity:0.73;fill:#6FCCDD;stroke:#6FCCDD;stroke-miterlimit:10;enable-background:new    ;}
	.st4{fill:#808285;}
	.st5{fill:none;stroke:#808285;stroke-width:0.5;stroke-miterlimit:10;}
	.st6{fill:none;stroke:#808285;stroke-width:0.25;stroke-miterlimit:10;}
	.st7{fill:#008FD0;stroke:#008FD0;stroke-miterlimit:10;}
	.st8{fill:#82C341;stroke:#82C341;stroke-miterlimit:10;}
	.st9{fill:#D30C55;stroke:#D30C55;stroke-miterlimit:10;}
	.st10{fill:none;stroke:#D30C55;stroke-miterlimit:10;}
	.st11{fill:none;stroke:#008FD0;stroke-miterlimit:10;}
	.st12{fill:none;stroke:#82C341;stroke-miterlimit:10;}
	.st13{fill:#FFFFFF;stroke:#231F20;stroke-width:2;stroke-miterlimit:10;}
</style>
<title>Illustration_8tranform</title>
<rect x="43.7" y="58.8" class="st0" width="29" height="48.2"/>
<rect x="43.9" y="22.8" class="st0" width="49" height="25.8"/>
<polygon class="st1" points="125.2,121.5 13.9,121.5 13.9,27.2 129.8,27.2 "/>
<polygon class="st2" points="60.3,37.5 51.5,37.5 51.5,29 60.7,29.1 "/>
<polygon class="st1" points="51.6,37.5 42.8,37.5 42.5,29.1 51.7,29 "/>
<polygon class="st2" points="65.2,28.8 74,28.8 74,37.3 64.8,37.2 "/>
<polygon class="st2" points="73.9,28.7 82.7,28.7 83,37.2 73.8,37.2 "/>
<polygon class="st2" points="104.5,37 95.7,37 95.7,28.6 104.9,28.7 "/>
<polygon class="st2" points="95.8,37.1 87,37.1 86.7,28.7 95.9,28.6 "/>
<path class="st0" d="M42.3,58.8c5.3-1.4,10.9-2.8,16.6-4.2c4.9-1.1,9.7-2.2,14.5-3.1c22.9,2.4,25.1,5.8,25.2,7.3
	c0.3,4.1-32,10.1-27.6,9.7C84.1,67.3,49.8,62.4,42.3,58.8z"/>
<line class="st0" x1="76.4" y1="42.8" x2="13.9" y2="53.2"/>
<line class="st0" x1="81.3" y1="43.6" x2="13.6" y2="56.5"/>
<line class="st0" x1="87.2" y1="44.4" x2="14.1" y2="59.2"/>
<line class="st0" x1="93.6" y1="46" x2="13.3" y2="62.9"/>
<line class="st0" x1="100.1" y1="47.1" x2="14.1" y2="65.9"/>
<line class="st0" x1="106.5" y1="48.1" x2="14.1" y2="69.9"/>
<line class="st0" x1="113.8" y1="49.5" x2="13.6" y2="74.2"/>
<line class="st0" x1="121.6" y1="51.4" x2="13.9" y2="79.6"/>
<line class="st0" x1="130.2" y1="52.2" x2="13.9" y2="85.7"/>
<line class="st0" x1="128.8" y1="56.2" x2="13.6" y2="93.3"/>
<line class="st0" x1="128.6" y1="61.6" x2="13.9" y2="102.4"/>
<line class="st0" x1="128" y1="68.3" x2="14.1" y2="113.1"/>
<line class="st0" x1="127.8" y1="76.3" x2="28.1" y2="120.9"/>
<line class="st0" x1="127.2" y1="86.8" x2="60.1" y2="121.7"/>
<line class="st0" x1="126.4" y1="101.6" x2="95" y2="122"/>
<line class="st0" x1="75.9" y1="42.2" x2="128.8" y2="52.2"/>
<line class="st0" x1="70.8" y1="43.6" x2="128.8" y2="54.8"/>
<line class="st0" x1="65.7" y1="44.9" x2="128.6" y2="57.5"/>
<line class="st0" x1="59.5" y1="46" x2="128" y2="60.8"/>
<line class="st0" x1="52" y1="46.8" x2="128" y2="64"/>
<line class="st0" x1="45.8" y1="47.9" x2="128" y2="68.3"/>
<line class="st0" x1="38" y1="49.2" x2="128" y2="72.8"/>
<line class="st0" x1="30" y1="50.5" x2="127.5" y2="78.2"/>
<line class="st0" x1="22.5" y1="52.2" x2="126.9" y2="84.7"/>
<line class="st0" x1="15.2" y1="53.8" x2="126.9" y2="92.2"/>
<line class="st0" x1="14.1" y1="59.2" x2="126.4" y2="101.6"/>
<line class="st0" x1="13.3" y1="64.8" x2="126.1" y2="112.9"/>
<line class="st0" x1="13.6" y1="74.2" x2="112.2" y2="121.5"/>
<line class="st0" x1="13.9" y1="85.7" x2="78.1" y2="121.5"/>
<line class="st0" x1="13.9" y1="101.3" x2="44.8" y2="121.2"/>
<polygon class="st3" points="72.9,111.2 48,99.1 45,63.4 72.8,73.1 "/>
<polygon class="st3" points="99.3,98.7 72.2,111.4 72.8,73.1 100.8,62.6 "/>
<polygon class="st3" points="100.8,62.6 72.6,72.9 45,63.4 74,55.8 "/>
<path class="st4" d="M46.9,35v0.7l-0.2-0.1l0.3,0.7l0.3-0.7l-0.2,0.1V35"/>
<line class="st5" x1="45.3" y1="32" x2="47" y2="32.8"/>
<line class="st5" x1="46.9" y1="32.8" x2="48.7" y2="32"/>
<line class="st6" x1="47" y1="32.8" x2="47" y2="35.3"/>
<line class="st5" x1="47" y1="35.2" x2="48.8" y2="34.2"/>
<line class="st5" x1="45.3" y1="32" x2="45.3" y2="34.4"/>
<line class="st5" x1="48.8" y1="32" x2="48.8" y2="34.3"/>
<line class="st5" x1="47" y1="31.1" x2="48.8" y2="32"/>
<line class="st5" x1="45.3" y1="32" x2="47" y2="31.1"/>
<line class="st5" x1="45.2" y1="34.3" x2="47.1" y2="35.2"/>
<path class="st4" d="M47.1,35.9v-5.5l0.2,0.1L47,29.8l-0.3,0.7l0.2-0.1v5.5"/>
<line class="st6" x1="43.8" y1="32.5" x2="49.8" y2="35"/>
<line class="st6" x1="44" y1="35.1" x2="50" y2="32.6"/>
<line class="st5" x1="47" y1="32.7" x2="47" y2="35.1"/>
<path class="st7" d="M72.6,82.9l-18.3,6.5v-0.9l-2,1.9l2.8,0.2l-0.6-0.6l18.3-6.5"/>
<path class="st8" d="M72.7,83.3V63.8l0.8,0.3l-1.1-2.5l-1.1,2.6l0.8-0.4v19.4"/>
<path class="st9" d="M72.2,83.7l18,7.3l-0.6,0.6l2.7-0.1l-2-2v0.9l-18-7.3"/>
<path class="st10" d="M61.4,86.4c0-9.9,4.6-17.9,10.3-17.9"/>
<path class="st11" d="M82.2,86.4c0-10-4.1-18.1-9.1-18.1"/>
<path class="st12" d="M62.6,87.7c5.8,5.5,14.5,5.5,19.7,0.2"/>
<rect class="st0" width="137.8" height="154"/>
<path class="st13" d="M80.3,140.3l-7.5-17.8l11.5,0L60.7,90.8L58.2,131l9.5-6.8l3.8,18.9L80.3,140.3z"/>
</svg>
