<?xml version="1.0" encoding="utf-8"?>
<!-- Generator: Adobe Illustrator 20.1.0, SVG Export Plug-In . SVG Version: 6.00 Build 0)  -->
<svg version="1.1" id="Layer_1" xmlns="http://www.w3.org/2000/svg" xmlns:xlink="http://www.w3.org/1999/xlink" x="0px" y="0px"
	 viewBox="0 0 137.8 170" style="enable-background:new 0 0 137.8 170;" xml:space="preserve">
<style type="text/css">
	.st0{fill:#FFFFFF;stroke:#808184;stroke-miterlimit:10;}
	.st1{fill:#C8C8C6;stroke:#C8C8C6;stroke-miterlimit:10;}
	.st2{fill:#231F20;}
	.st3{fill:#FFFFFF;stroke:#FFFFFF;stroke-miterlimit:10;}
	.st4{enable-background:new    ;}
	.st5{fill:#5CB547;stroke:#5CB547;stroke-miterlimit:10;}
	.st6{fill:#C8C8C6;}
	.st7{opacity:0.5;fill:#5CB547;stroke:#5CB547;stroke-miterlimit:10;}
	.st8{fill:#FFFFFF;stroke:#C8C8C6;stroke-miterlimit:10;}
	.st9{fill:#FFFFFF;stroke:#231F20;stroke-width:2;stroke-miterlimit:10;}
</style>
<title>Illustration_6resource</title>
<rect x="23.6" y="24.8" class="st0" width="77" height="127.3"/>
<rect x="23.6" y="63" class="st1" width="77" height="9.5"/>
<g>
	<path class="st2" d="M41.4,65.2L39.6,70h-0.9L37,65.2h0.9l1.2,3.6c0,0.1,0.1,0.3,0.1,0.4h0c0-0.1,0-0.3,0.1-0.4l1.2-3.6H41.4z"/>
	<path class="st2" d="M43.2,65.2v0.6h-0.4v3.5h0.4V70h-1.7v-0.6H42v-3.5h-0.4v-0.6H43.2z"/>
	<path class="st2" d="M46.7,70H44v-4.8h2.6v0.7h-1.8v1.4h1.7v0.7h-1.7v1.4h1.9V70z"/>
	<path class="st2" d="M53.6,65.2L52.3,70h-0.9l-0.9-3.4c0-0.1-0.1-0.3-0.1-0.5h0c0,0.2,0,0.3-0.1,0.5L49.4,70h-0.9l-1.3-4.8H48
		l0.9,3.5c0,0.1,0.1,0.3,0.1,0.5h0c0-0.1,0-0.3,0.1-0.5l1-3.5h0.8l0.9,3.5c0,0.1,0.1,0.3,0.1,0.4h0c0-0.1,0-0.3,0.1-0.4l0.9-3.5
		H53.6z"/>
	<path class="st2" d="M54.1,69.8V69c0.1,0.1,0.2,0.1,0.3,0.2s0.2,0.1,0.3,0.1c0.1,0,0.2,0.1,0.3,0.1c0.1,0,0.2,0,0.3,0
		c0.3,0,0.6-0.1,0.7-0.2c0.2-0.1,0.2-0.3,0.2-0.5c0-0.1,0-0.2-0.1-0.3s-0.1-0.2-0.2-0.2c-0.1-0.1-0.2-0.1-0.3-0.2
		c-0.1-0.1-0.3-0.1-0.4-0.2c-0.2-0.1-0.3-0.2-0.5-0.3c-0.1-0.1-0.3-0.2-0.4-0.3c-0.1-0.1-0.2-0.2-0.2-0.4c-0.1-0.1-0.1-0.3-0.1-0.5
		c0-0.2,0.1-0.4,0.2-0.6c0.1-0.2,0.2-0.3,0.4-0.4c0.2-0.1,0.4-0.2,0.6-0.2c0.2-0.1,0.4-0.1,0.6-0.1c0.5,0,0.9,0.1,1.1,0.2v0.8
		c-0.3-0.2-0.6-0.3-1.1-0.3c-0.1,0-0.2,0-0.4,0c-0.1,0-0.2,0.1-0.3,0.1C55.1,66,55,66,55,66.1c-0.1,0.1-0.1,0.2-0.1,0.3
		c0,0.1,0,0.2,0.1,0.3s0.1,0.1,0.2,0.2c0.1,0.1,0.2,0.1,0.3,0.2s0.3,0.1,0.4,0.2c0.2,0.1,0.3,0.2,0.5,0.3s0.3,0.2,0.4,0.3
		c0.1,0.1,0.2,0.2,0.3,0.4c0.1,0.1,0.1,0.3,0.1,0.5c0,0.2,0,0.4-0.1,0.6c-0.1,0.2-0.2,0.3-0.4,0.4S56.2,70,56,70
		c-0.2,0-0.4,0.1-0.7,0.1c-0.1,0-0.2,0-0.3,0c-0.1,0-0.2,0-0.4-0.1c-0.1,0-0.2-0.1-0.3-0.1S54.1,69.9,54.1,69.8z"/>
</g>
<rect x="12" y="146" class="st3" width="125" height="11"/>
<g class="st4">
	<path class="st5" d="M65.1,64.7v2.6h2.5v1.1h-2.5V71h-1.2v-2.6h-2.5v-1.1h2.5v-2.6H65.1z"/>
</g>
<g>
	<line class="st5" x1="28.7" y1="65.3" x2="30.7" y2="69"/>
	<line class="st5" x1="33" y1="65" x2="30.7" y2="69"/>
</g>
<g>
	<line class="st5" x1="28.7" y1="76.3" x2="30.7" y2="80"/>
	<line class="st5" x1="33" y1="76" x2="30.7" y2="80"/>
</g>
<g>
	<line class="st5" x1="36.7" y1="92.3" x2="38.7" y2="96"/>
	<line class="st5" x1="41" y1="92" x2="38.7" y2="96"/>
</g>
<rect x="37" y="76" transform="matrix(6.123234e-17 -1 1 6.123234e-17 -38.5 117.5)" class="st6" width="5" height="4"/>
<rect x="43.5" y="92.5" transform="matrix(6.123234e-17 -1 1 6.123234e-17 -48.5 140.5)" class="st6" width="5" height="4"/>
<rect x="43.5" y="101.5" transform="matrix(6.123234e-17 -1 1 6.123234e-17 -57.5 149.5)" class="st6" width="5" height="4"/>
<rect x="43.5" y="109.5" transform="matrix(6.123234e-17 -1 1 6.123234e-17 -65.5 157.5)" class="st6" width="5" height="4"/>
<rect x="43.5" y="117.5" transform="matrix(6.123234e-17 -1 1 6.123234e-17 -73.5 165.5)" class="st6" width="5" height="4"/>
<rect x="24" y="25" class="st1" width="76" height="9.5"/>
<g>
	<path class="st2" d="M41.4,31.8C41,32,40.6,32.1,40,32.1c-0.7,0-1.3-0.2-1.7-0.7c-0.4-0.4-0.6-1-0.6-1.7c0-0.8,0.2-1.4,0.7-1.9
		s1.1-0.7,1.8-0.7c0.5,0,0.8,0.1,1.2,0.2v0.8c-0.3-0.2-0.7-0.3-1.1-0.3c-0.5,0-0.9,0.2-1.3,0.5c-0.3,0.3-0.5,0.8-0.5,1.3
		c0,0.5,0.2,1,0.5,1.3c0.3,0.3,0.7,0.5,1.2,0.5c0.5,0,0.8-0.1,1.2-0.3V31.8z"/>
	<path class="st2" d="M44.2,32.1c-0.7,0-1.2-0.2-1.7-0.7c-0.4-0.4-0.6-1-0.6-1.8c0-0.8,0.2-1.4,0.6-1.8c0.4-0.5,1-0.7,1.7-0.7
		c0.7,0,1.2,0.2,1.6,0.7c0.4,0.4,0.6,1,0.6,1.8c0,0.8-0.2,1.4-0.6,1.9C45.4,31.9,44.9,32.1,44.2,32.1z M44.2,27.8
		c-0.4,0-0.8,0.2-1.1,0.5c-0.3,0.3-0.4,0.8-0.4,1.3c0,0.5,0.1,1,0.4,1.3c0.3,0.3,0.6,0.5,1.1,0.5c0.5,0,0.8-0.2,1.1-0.5
		c0.3-0.3,0.4-0.7,0.4-1.3c0-0.6-0.1-1-0.4-1.3C45,28,44.7,27.8,44.2,27.8z"/>
	<path class="st2" d="M51.4,32h-0.9l-2.3-3.5c-0.1-0.1-0.1-0.2-0.1-0.3h0c0,0.1,0,0.3,0,0.7V32h-0.8v-4.8h0.9l2.2,3.4
		c0.1,0.1,0.2,0.2,0.2,0.3h0c0-0.1,0-0.3,0-0.6v-3.1h0.8V32z"/>
	<path class="st2" d="M55.2,27.9h-1.8v1.4h1.7V30h-1.7v2h-0.8v-4.8h2.6V27.9z"/>
	<path class="st2" d="M57.3,27.2v0.6h-0.4v3.5h0.4V32h-1.7v-0.6h0.4v-3.5h-0.4v-0.6H57.3z"/>
	<path class="st2" d="M61.8,31.7c-0.5,0.3-1.1,0.4-1.7,0.4c-0.7,0-1.3-0.2-1.7-0.7c-0.4-0.4-0.7-1-0.7-1.8c0-0.7,0.2-1.4,0.7-1.8
		s1.1-0.7,1.8-0.7c0.5,0,1,0.1,1.3,0.2v0.8c-0.4-0.2-0.8-0.4-1.3-0.4c-0.5,0-0.9,0.2-1.3,0.5s-0.5,0.8-0.5,1.3c0,0.6,0.1,1,0.4,1.3
		c0.3,0.3,0.7,0.5,1.1,0.5c0.3,0,0.6-0.1,0.9-0.2v-1.1h-1v-0.7h1.8V31.7z"/>
	<path class="st2" d="M66.6,30.1c0,1.3-0.6,2-1.9,2c-1.2,0-1.8-0.6-1.8-1.9v-2.9h0.8V30c0,0.9,0.4,1.4,1.1,1.4
		c0.7,0,1.1-0.5,1.1-1.4v-2.8h0.8V30.1z"/>
	<path class="st2" d="M71.4,32h-0.9l-0.8-1.3c-0.1-0.1-0.1-0.2-0.2-0.3c-0.1-0.1-0.1-0.2-0.2-0.2s-0.1-0.1-0.2-0.1
		c-0.1,0-0.2,0-0.3,0h-0.3v2h-0.8v-4.8h1.6c0.2,0,0.4,0,0.6,0.1c0.2,0.1,0.4,0.1,0.5,0.2s0.3,0.2,0.3,0.4c0.1,0.2,0.1,0.4,0.1,0.6
		c0,0.2,0,0.3-0.1,0.5c0,0.1-0.1,0.3-0.2,0.4s-0.2,0.2-0.3,0.3c-0.1,0.1-0.3,0.1-0.4,0.2v0c0.1,0,0.2,0.1,0.2,0.2
		c0.1,0.1,0.1,0.1,0.2,0.2c0.1,0.1,0.1,0.1,0.2,0.2s0.1,0.2,0.2,0.3L71.4,32z M68.5,27.8v1.6h0.7c0.1,0,0.2,0,0.3-0.1
		s0.2-0.1,0.3-0.2c0.1-0.1,0.1-0.2,0.2-0.3c0-0.1,0.1-0.2,0.1-0.3c0-0.2-0.1-0.4-0.2-0.5c-0.1-0.1-0.4-0.2-0.6-0.2H68.5z"/>
	<path class="st2" d="M75.9,32H75l-0.4-1.2h-1.9L72.3,32h-0.9l1.8-4.8h0.9L75.9,32z M74.4,30.1l-0.7-1.9c0-0.1,0-0.2-0.1-0.3h0
		c0,0.1,0,0.2-0.1,0.3l-0.7,1.9H74.4z"/>
	<path class="st2" d="M79.2,27.9h-1.4V32H77v-4.1h-1.4v-0.7h3.6V27.9z"/>
	<path class="st2" d="M81.1,27.2v0.6h-0.4v3.5h0.4V32h-1.7v-0.6h0.4v-3.5h-0.4v-0.6H81.1z"/>
	<path class="st2" d="M83.8,32.1c-0.7,0-1.2-0.2-1.7-0.7c-0.4-0.4-0.6-1-0.6-1.8c0-0.8,0.2-1.4,0.6-1.8c0.4-0.5,1-0.7,1.7-0.7
		c0.7,0,1.2,0.2,1.6,0.7c0.4,0.4,0.6,1,0.6,1.8c0,0.8-0.2,1.4-0.6,1.9C85.1,31.9,84.5,32.1,83.8,32.1z M83.9,27.8
		c-0.4,0-0.8,0.2-1.1,0.5c-0.3,0.3-0.4,0.8-0.4,1.3c0,0.5,0.1,1,0.4,1.3c0.3,0.3,0.6,0.5,1.1,0.5c0.5,0,0.8-0.2,1.1-0.5
		c0.3-0.3,0.4-0.7,0.4-1.3c0-0.6-0.1-1-0.4-1.3C84.7,28,84.3,27.8,83.9,27.8z"/>
	<path class="st2" d="M91.1,32h-0.9l-2.3-3.5c-0.1-0.1-0.1-0.2-0.1-0.3h0c0,0.1,0,0.3,0,0.7V32H87v-4.8H88l2.2,3.4
		c0.1,0.1,0.2,0.2,0.2,0.3h0c0-0.1,0-0.3,0-0.6v-3.1h0.8V32z"/>
</g>
<g>
	<line class="st5" x1="29.1" y1="27.3" x2="31.1" y2="31"/>
	<line class="st5" x1="33.4" y1="27" x2="31.1" y2="31"/>
</g>
<g>
	<path class="st2" d="M40.7,37.9h-1.4V42h-0.8v-4.1h-1.4v-0.7h3.6V37.9z"/>
	<path class="st2" d="M44.3,42h-0.8v-1.9c0-0.7-0.2-1-0.7-1c-0.2,0-0.4,0.1-0.6,0.3c-0.2,0.2-0.2,0.4-0.2,0.8V42h-0.8v-5.1h0.8v2.2
		h0c0.3-0.4,0.6-0.7,1.1-0.7c0.8,0,1.1,0.5,1.1,1.4V42z"/>
	<path class="st2" d="M48.2,40.5h-2.3c0,0.3,0.1,0.6,0.3,0.7s0.4,0.3,0.8,0.3c0.4,0,0.7-0.1,1-0.3v0.6c-0.3,0.2-0.7,0.3-1.2,0.3
		c-0.5,0-0.9-0.2-1.2-0.5c-0.3-0.3-0.4-0.8-0.4-1.3c0-0.5,0.2-1,0.5-1.3c0.3-0.3,0.7-0.5,1.2-0.5s0.8,0.2,1.1,0.5
		c0.3,0.3,0.4,0.7,0.4,1.3V40.5z M47.4,39.9c0-0.3-0.1-0.5-0.2-0.7c-0.1-0.2-0.3-0.2-0.5-0.2c-0.2,0-0.4,0.1-0.6,0.2
		c-0.2,0.2-0.3,0.4-0.3,0.6H47.4z"/>
	<path class="st2" d="M54.1,42h-0.8v-1.9c0-0.4-0.1-0.6-0.2-0.8s-0.3-0.2-0.5-0.2c-0.2,0-0.4,0.1-0.5,0.3s-0.2,0.4-0.2,0.7V42h-0.8
		v-1.9c0-0.6-0.2-1-0.7-1c-0.2,0-0.4,0.1-0.5,0.3c-0.1,0.2-0.2,0.4-0.2,0.7V42h-0.8v-3.4h0.8v0.5h0c0.2-0.4,0.6-0.6,1.1-0.6
		c0.2,0,0.4,0.1,0.6,0.2c0.2,0.1,0.3,0.3,0.4,0.5c0.3-0.5,0.6-0.7,1.1-0.7c0.8,0,1.1,0.5,1.1,1.4V42z"/>
	<path class="st2" d="M57.9,40.5h-2.3c0,0.3,0.1,0.6,0.3,0.7s0.4,0.3,0.8,0.3c0.4,0,0.7-0.1,1-0.3v0.6c-0.3,0.2-0.7,0.3-1.2,0.3
		c-0.5,0-0.9-0.2-1.2-0.5c-0.3-0.3-0.4-0.8-0.4-1.3c0-0.5,0.2-1,0.5-1.3c0.3-0.3,0.7-0.5,1.2-0.5s0.8,0.2,1.1,0.5
		c0.3,0.3,0.4,0.7,0.4,1.3V40.5z M57.2,39.9c0-0.3-0.1-0.5-0.2-0.7c-0.1-0.2-0.3-0.2-0.5-0.2c-0.2,0-0.4,0.1-0.6,0.2
		c-0.2,0.2-0.3,0.4-0.3,0.6H57.2z"/>
	<path class="st2" d="M58.4,41.9v-0.7c0.3,0.2,0.6,0.3,1,0.3c0.5,0,0.7-0.1,0.7-0.4c0-0.1,0-0.1-0.1-0.2s-0.1-0.1-0.2-0.1
		c-0.1,0-0.1-0.1-0.2-0.1c-0.1,0-0.2-0.1-0.3-0.1c-0.1-0.1-0.3-0.1-0.4-0.2c-0.1-0.1-0.2-0.1-0.3-0.2c-0.1-0.1-0.1-0.2-0.2-0.3
		s-0.1-0.2-0.1-0.4c0-0.2,0-0.3,0.1-0.4s0.2-0.2,0.3-0.3c0.1-0.1,0.3-0.2,0.4-0.2c0.2,0,0.3-0.1,0.5-0.1c0.3,0,0.6,0,0.9,0.1v0.7
		c-0.2-0.2-0.5-0.2-0.8-0.2c-0.1,0-0.2,0-0.3,0c-0.1,0-0.1,0-0.2,0.1c-0.1,0-0.1,0.1-0.1,0.1c0,0.1,0,0.1,0,0.2c0,0.1,0,0.1,0,0.2
		c0,0.1,0.1,0.1,0.1,0.1s0.1,0.1,0.2,0.1s0.2,0.1,0.3,0.1c0.1,0.1,0.3,0.1,0.4,0.2s0.2,0.1,0.3,0.2c0.1,0.1,0.1,0.2,0.2,0.3
		s0.1,0.2,0.1,0.4c0,0.2,0,0.3-0.1,0.5c-0.1,0.1-0.2,0.2-0.3,0.3S60.1,42,60,42c-0.2,0-0.4,0.1-0.6,0.1C59,42.1,58.7,42,58.4,41.9z"
		/>
	<path class="st2" d="M40.3,50.2h-2.7v-4.8h2.6v0.7h-1.8v1.4H40v0.7h-1.7v1.4h1.9V50.2z"/>
	<path class="st2" d="M43.9,46.8l-1.1,1.7l1.1,1.7H43l-0.6-1.1c0-0.1-0.1-0.1-0.1-0.2h0c0,0-0.1,0.1-0.1,0.2l-0.6,1.1h-0.9l1.2-1.7
		l-1.1-1.7h0.9l0.6,1.1c0,0.1,0.1,0.2,0.1,0.3h0l0.8-1.4H43.9z"/>
	<path class="st2" d="M45.3,49.7L45.3,49.7l0,2.1h-0.8v-5h0.8v0.6h0c0.3-0.5,0.7-0.7,1.2-0.7c0.4,0,0.8,0.2,1,0.5
		c0.2,0.3,0.4,0.7,0.4,1.2c0,0.6-0.1,1-0.4,1.4c-0.3,0.3-0.7,0.5-1.1,0.5C45.9,50.3,45.5,50.1,45.3,49.7z M45.3,48.4v0.4
		c0,0.3,0.1,0.5,0.2,0.6c0.2,0.2,0.4,0.3,0.6,0.3c0.3,0,0.5-0.1,0.7-0.3s0.2-0.5,0.2-0.9c0-0.3-0.1-0.6-0.2-0.8
		c-0.2-0.2-0.4-0.3-0.6-0.3c-0.3,0-0.5,0.1-0.7,0.3C45.4,47.8,45.3,48.1,45.3,48.4z"/>
	<path class="st2" d="M51.5,48.7h-2.3c0,0.3,0.1,0.6,0.3,0.7s0.4,0.3,0.8,0.3c0.4,0,0.7-0.1,1-0.3V50c-0.3,0.2-0.7,0.3-1.2,0.3
		c-0.5,0-0.9-0.2-1.2-0.5c-0.3-0.3-0.4-0.8-0.4-1.3c0-0.5,0.2-1,0.5-1.3c0.3-0.3,0.7-0.5,1.2-0.5s0.8,0.2,1.1,0.5
		c0.3,0.3,0.4,0.7,0.4,1.3V48.7z M50.8,48.2c0-0.3-0.1-0.5-0.2-0.7c-0.1-0.2-0.3-0.2-0.5-0.2c-0.2,0-0.4,0.1-0.6,0.2
		c-0.2,0.2-0.3,0.4-0.3,0.6H50.8z"/>
	<path class="st2" d="M54.3,47.5c-0.1-0.1-0.2-0.1-0.4-0.1c-0.2,0-0.4,0.1-0.6,0.3c-0.2,0.2-0.2,0.5-0.2,0.8v1.6h-0.8v-3.4h0.8v0.7
		h0c0.1-0.2,0.2-0.4,0.3-0.6c0.2-0.1,0.3-0.2,0.5-0.2c0.1,0,0.2,0,0.3,0.1V47.5z"/>
	<path class="st2" d="M55.2,46.1c-0.1,0-0.2,0-0.3-0.1s-0.1-0.2-0.1-0.3c0-0.1,0-0.2,0.1-0.3s0.2-0.1,0.3-0.1c0.1,0,0.2,0,0.3,0.1
		c0.1,0.1,0.1,0.2,0.1,0.3c0,0.1,0,0.2-0.1,0.3C55.5,46,55.3,46.1,55.2,46.1z M55.6,50.2h-0.8v-3.4h0.8V50.2z"/>
	<path class="st2" d="M59.5,48.7h-2.3c0,0.3,0.1,0.6,0.3,0.7s0.4,0.3,0.8,0.3c0.4,0,0.7-0.1,1-0.3V50c-0.3,0.2-0.7,0.3-1.2,0.3
		c-0.5,0-0.9-0.2-1.2-0.5c-0.3-0.3-0.4-0.8-0.4-1.3c0-0.5,0.2-1,0.5-1.3c0.3-0.3,0.7-0.5,1.2-0.5s0.8,0.2,1.1,0.5
		c0.3,0.3,0.4,0.7,0.4,1.3V48.7z M58.8,48.2c0-0.3-0.1-0.5-0.2-0.7c-0.1-0.2-0.3-0.2-0.5-0.2c-0.2,0-0.4,0.1-0.6,0.2
		c-0.2,0.2-0.3,0.4-0.3,0.6H58.8z"/>
	<path class="st2" d="M63.3,50.2h-0.8v-1.9c0-0.6-0.2-1-0.7-1c-0.2,0-0.4,0.1-0.6,0.3C61.1,47.8,61,48,61,48.3v2h-0.8v-3.4H61v0.6h0
		c0.3-0.4,0.6-0.7,1.1-0.7c0.4,0,0.7,0.1,0.9,0.4c0.2,0.2,0.3,0.6,0.3,1V50.2z"/>
	<path class="st2" d="M66.7,50.1c-0.3,0.2-0.6,0.2-1,0.2c-0.5,0-0.9-0.2-1.2-0.5S64,49.1,64,48.6c0-0.6,0.2-1,0.5-1.4
		s0.8-0.5,1.3-0.5c0.3,0,0.6,0.1,0.8,0.2v0.7c-0.2-0.2-0.5-0.3-0.8-0.3c-0.3,0-0.6,0.1-0.8,0.3c-0.2,0.2-0.3,0.5-0.3,0.9
		c0,0.4,0.1,0.6,0.3,0.8c0.2,0.2,0.5,0.3,0.8,0.3c0.3,0,0.5-0.1,0.8-0.3V50.1z"/>
	<path class="st2" d="M70.4,48.7H68c0,0.3,0.1,0.6,0.3,0.7s0.4,0.3,0.8,0.3c0.4,0,0.7-0.1,1-0.3V50c-0.3,0.2-0.7,0.3-1.2,0.3
		c-0.5,0-0.9-0.2-1.2-0.5c-0.3-0.3-0.4-0.8-0.4-1.3c0-0.5,0.2-1,0.5-1.3c0.3-0.3,0.7-0.5,1.2-0.5s0.8,0.2,1.1,0.5
		c0.3,0.3,0.4,0.7,0.4,1.3V48.7z M69.6,48.2c0-0.3-0.1-0.5-0.2-0.7c-0.1-0.2-0.3-0.2-0.5-0.2c-0.2,0-0.4,0.1-0.6,0.2
		c-0.2,0.2-0.3,0.4-0.3,0.6H69.6z"/>
	<path class="st2" d="M70.9,50.1v-0.7c0.3,0.2,0.6,0.3,1,0.3c0.5,0,0.7-0.1,0.7-0.4c0-0.1,0-0.1-0.1-0.2S72.4,49,72.4,49
		c-0.1,0-0.1-0.1-0.2-0.1c-0.1,0-0.2-0.1-0.3-0.1c-0.1-0.1-0.3-0.1-0.4-0.2c-0.1-0.1-0.2-0.1-0.3-0.2c-0.1-0.1-0.1-0.2-0.2-0.3
		s-0.1-0.2-0.1-0.4c0-0.2,0-0.3,0.1-0.4s0.2-0.2,0.3-0.3c0.1-0.1,0.3-0.2,0.4-0.2c0.2,0,0.3-0.1,0.5-0.1c0.3,0,0.6,0,0.9,0.1v0.7
		c-0.2-0.2-0.5-0.2-0.8-0.2c-0.1,0-0.2,0-0.3,0c-0.1,0-0.1,0-0.2,0.1c-0.1,0-0.1,0.1-0.1,0.1c0,0.1,0,0.1,0,0.2c0,0.1,0,0.1,0,0.2
		c0,0.1,0.1,0.1,0.1,0.1s0.1,0.1,0.2,0.1s0.2,0.1,0.3,0.1c0.1,0.1,0.3,0.1,0.4,0.2s0.2,0.1,0.3,0.2c0.1,0.1,0.1,0.2,0.2,0.3
		s0.1,0.2,0.1,0.4c0,0.2,0,0.3-0.1,0.5c-0.1,0.1-0.2,0.2-0.3,0.3s-0.3,0.1-0.5,0.2c-0.2,0-0.4,0.1-0.6,0.1
		C71.5,50.3,71.2,50.3,70.9,50.1z"/>
	<path class="st2" d="M38.8,53.7v0.6h-0.4v3.5h0.4v0.6h-1.7v-0.6h0.4v-3.5h-0.4v-0.6H38.8z"/>
	<path class="st2" d="M42.5,58.5h-0.8v-1.9c0-0.6-0.2-1-0.7-1c-0.2,0-0.4,0.1-0.6,0.3c-0.2,0.2-0.2,0.4-0.2,0.7v2h-0.8V55h0.8v0.6h0
		c0.3-0.4,0.6-0.7,1.1-0.7c0.4,0,0.7,0.1,0.9,0.4c0.2,0.2,0.3,0.6,0.3,1V58.5z"/>
	<path class="st2" d="M45.4,54c-0.1-0.1-0.2-0.1-0.4-0.1c-0.4,0-0.6,0.2-0.6,0.6V55h0.8v0.6h-0.8v2.8h-0.8v-2.8h-0.6V55h0.6v-0.6
		c0-0.4,0.1-0.6,0.4-0.9c0.2-0.2,0.5-0.3,0.9-0.3c0.2,0,0.3,0,0.5,0.1V54z"/>
	<path class="st2" d="M47.4,58.5c-0.5,0-1-0.2-1.3-0.5s-0.5-0.7-0.5-1.3c0-0.6,0.2-1,0.5-1.3c0.3-0.3,0.8-0.5,1.3-0.5
		c0.5,0,1,0.2,1.3,0.5c0.3,0.3,0.4,0.8,0.4,1.3c0,0.5-0.2,1-0.5,1.3C48.4,58.4,47.9,58.5,47.4,58.5z M47.4,55.6
		c-0.3,0-0.5,0.1-0.7,0.3s-0.3,0.5-0.3,0.9c0,0.4,0.1,0.6,0.3,0.8c0.2,0.2,0.4,0.3,0.7,0.3c0.3,0,0.5-0.1,0.7-0.3s0.2-0.5,0.2-0.9
		c0-0.4-0.1-0.7-0.2-0.9C48,55.7,47.7,55.6,47.4,55.6z"/>
</g>
<rect x="24" y="99.5" class="st7" width="77" height="7.5"/>
<g>
	<path class="st2" d="M49,81h-0.8v-2.1h-2.3V81h-0.8v-4.8h0.8v2h2.3v-2H49V81z"/>
	<path class="st2" d="M51.6,81.1c-0.5,0-1-0.2-1.3-0.5s-0.5-0.7-0.5-1.3c0-0.6,0.2-1,0.5-1.3c0.3-0.3,0.8-0.5,1.3-0.5
		c0.5,0,1,0.2,1.3,0.5c0.3,0.3,0.4,0.8,0.4,1.3c0,0.5-0.2,1-0.5,1.3C52.6,80.9,52.2,81.1,51.6,81.1z M51.7,78.1
		c-0.3,0-0.5,0.1-0.7,0.3s-0.3,0.5-0.3,0.9c0,0.4,0.1,0.6,0.3,0.8c0.2,0.2,0.4,0.3,0.7,0.3c0.3,0,0.5-0.1,0.7-0.3s0.2-0.5,0.2-0.9
		c0-0.4-0.1-0.7-0.2-0.9C52.2,78.2,52,78.1,51.7,78.1z"/>
	<path class="st2" d="M59.3,81h-0.8v-1.9c0-0.4-0.1-0.6-0.2-0.8s-0.3-0.2-0.5-0.2c-0.2,0-0.4,0.1-0.5,0.3s-0.2,0.4-0.2,0.7V81h-0.8
		v-1.9c0-0.6-0.2-1-0.7-1c-0.2,0-0.4,0.1-0.5,0.3C55,78.6,55,78.8,55,79.1V81h-0.8v-3.4H55v0.5h0c0.2-0.4,0.6-0.6,1.1-0.6
		c0.2,0,0.4,0.1,0.6,0.2c0.2,0.1,0.3,0.3,0.4,0.5c0.3-0.5,0.6-0.7,1.1-0.7c0.8,0,1.1,0.5,1.1,1.4V81z"/>
	<path class="st2" d="M63.2,79.5h-2.3c0,0.3,0.1,0.6,0.3,0.7s0.4,0.3,0.8,0.3c0.4,0,0.7-0.1,1-0.3v0.6c-0.3,0.2-0.7,0.3-1.2,0.3
		c-0.5,0-0.9-0.2-1.2-0.5c-0.3-0.3-0.4-0.8-0.4-1.3c0-0.5,0.2-1,0.5-1.3c0.3-0.3,0.7-0.5,1.2-0.5s0.8,0.2,1.1,0.5
		c0.3,0.3,0.4,0.7,0.4,1.3V79.5z M62.4,78.9c0-0.3-0.1-0.5-0.2-0.7c-0.1-0.2-0.3-0.2-0.5-0.2c-0.2,0-0.4,0.1-0.6,0.2
		c-0.2,0.2-0.3,0.4-0.3,0.6H62.4z"/>
	<path class="st2" d="M41.5,89.2h-0.8v-2.1h-2.3v2.1h-0.8v-4.8h0.8v2h2.3v-2h0.8V89.2z"/>
	<path class="st2" d="M44.1,89.3c-0.5,0-1-0.2-1.3-0.5s-0.5-0.7-0.5-1.3c0-0.6,0.2-1,0.5-1.3c0.3-0.3,0.8-0.5,1.3-0.5
		c0.5,0,1,0.2,1.3,0.5c0.3,0.3,0.4,0.8,0.4,1.3c0,0.5-0.2,1-0.5,1.3C45.1,89.2,44.6,89.3,44.1,89.3z M44.1,86.3
		c-0.3,0-0.5,0.1-0.7,0.3s-0.3,0.5-0.3,0.9c0,0.4,0.1,0.6,0.3,0.8c0.2,0.2,0.4,0.3,0.7,0.3c0.3,0,0.5-0.1,0.7-0.3s0.2-0.5,0.2-0.9
		c0-0.4-0.1-0.7-0.2-0.9C44.7,86.4,44.4,86.3,44.1,86.3z"/>
	<path class="st2" d="M51.8,89.2H51v-1.9c0-0.4-0.1-0.6-0.2-0.8s-0.3-0.2-0.5-0.2c-0.2,0-0.4,0.1-0.5,0.3s-0.2,0.4-0.2,0.7v1.9h-0.8
		v-1.9c0-0.6-0.2-1-0.7-1c-0.2,0-0.4,0.1-0.5,0.3c-0.1,0.2-0.2,0.4-0.2,0.7v1.9h-0.8v-3.4h0.8v0.5h0c0.2-0.4,0.6-0.6,1.1-0.6
		c0.2,0,0.4,0.1,0.6,0.2c0.2,0.1,0.3,0.3,0.4,0.5c0.3-0.5,0.6-0.7,1.1-0.7c0.8,0,1.1,0.5,1.1,1.4V89.2z"/>
	<path class="st2" d="M55.6,87.7h-2.3c0,0.3,0.1,0.6,0.3,0.7s0.4,0.3,0.8,0.3c0.4,0,0.7-0.1,1-0.3V89c-0.3,0.2-0.7,0.3-1.2,0.3
		c-0.5,0-0.9-0.2-1.2-0.5c-0.3-0.3-0.4-0.8-0.4-1.3c0-0.5,0.2-1,0.5-1.3c0.3-0.3,0.7-0.5,1.2-0.5s0.8,0.2,1.1,0.5
		c0.3,0.3,0.4,0.7,0.4,1.3V87.7z M54.9,87.2c0-0.3-0.1-0.5-0.2-0.7c-0.1-0.2-0.3-0.2-0.5-0.2c-0.2,0-0.4,0.1-0.6,0.2
		c-0.2,0.2-0.3,0.4-0.3,0.6H54.9z"/>
	<path class="st2" d="M56.7,89.3c-0.1,0-0.2,0-0.3-0.1c-0.1-0.1-0.1-0.2-0.1-0.3c0-0.1,0-0.2,0.1-0.3c0.1-0.1,0.2-0.1,0.3-0.1
		c0.1,0,0.3,0,0.3,0.1c0.1,0.1,0.1,0.2,0.1,0.3c0,0.1,0,0.2-0.1,0.3C56.9,89.3,56.8,89.3,56.7,89.3z"/>
	<path class="st2" d="M58.8,89.1c0,0.6-0.1,1-0.4,1.3c-0.2,0.3-0.6,0.5-1,0.5c-0.2,0-0.3,0-0.5-0.1v-0.7c0.1,0.1,0.3,0.2,0.4,0.2
		c0.4,0,0.7-0.4,0.7-1.2v-3.3h0.8V89.1z M58.4,85.1c-0.1,0-0.2,0-0.3-0.1C58,84.9,58,84.8,58,84.6c0-0.1,0-0.2,0.1-0.3
		c0.1-0.1,0.2-0.1,0.3-0.1c0.1,0,0.2,0,0.3,0.1c0.1,0.1,0.1,0.2,0.1,0.3c0,0.1,0,0.2-0.1,0.3C58.7,85,58.6,85.1,58.4,85.1z"/>
	<path class="st2" d="M59.6,89.1v-0.7c0.3,0.2,0.6,0.3,1,0.3c0.5,0,0.7-0.1,0.7-0.4c0-0.1,0-0.1-0.1-0.2S61.1,88,61,88
		c-0.1,0-0.1-0.1-0.2-0.1c-0.1,0-0.2-0.1-0.3-0.1c-0.1-0.1-0.3-0.1-0.4-0.2c-0.1-0.1-0.2-0.1-0.3-0.2c-0.1-0.1-0.1-0.2-0.2-0.3
		s-0.1-0.2-0.1-0.4c0-0.2,0-0.3,0.1-0.4s0.2-0.2,0.3-0.3c0.1-0.1,0.3-0.2,0.4-0.2c0.2,0,0.3-0.1,0.5-0.1c0.3,0,0.6,0,0.9,0.1v0.7
		c-0.2-0.2-0.5-0.2-0.8-0.2c-0.1,0-0.2,0-0.3,0c-0.1,0-0.1,0-0.2,0.1c-0.1,0-0.1,0.1-0.1,0.1c0,0.1,0,0.1,0,0.2c0,0.1,0,0.1,0,0.2
		c0,0.1,0.1,0.1,0.1,0.1s0.1,0.1,0.2,0.1s0.2,0.1,0.3,0.1c0.1,0.1,0.3,0.1,0.4,0.2s0.2,0.1,0.3,0.2c0.1,0.1,0.1,0.2,0.2,0.3
		s0.1,0.2,0.1,0.4c0,0.2,0,0.3-0.1,0.5c-0.1,0.1-0.2,0.2-0.3,0.3s-0.3,0.1-0.5,0.2c-0.2,0-0.4,0.1-0.6,0.1
		C60.2,89.3,59.9,89.3,59.6,89.1z"/>
	<path class="st2" d="M50.7,97.3v-0.7c0.3,0.2,0.7,0.4,1.1,0.4c0.3,0,0.6-0.1,0.8-0.2c0.2-0.1,0.3-0.3,0.3-0.6
		c0-0.5-0.4-0.8-1.3-0.8h-0.4v-0.6h0.4c0.7,0,1.1-0.3,1.1-0.8c0-0.5-0.3-0.7-0.9-0.7c-0.3,0-0.6,0.1-0.9,0.3v-0.7
		c0.3-0.2,0.7-0.3,1.2-0.3c0.4,0,0.8,0.1,1,0.3s0.4,0.5,0.4,0.8c0,0.6-0.3,1-1,1.2v0c0.3,0,0.6,0.2,0.8,0.4c0.2,0.2,0.3,0.5,0.3,0.8
		c0,0.4-0.2,0.8-0.5,1c-0.3,0.3-0.8,0.4-1.3,0.4C51.3,97.5,51,97.5,50.7,97.3z"/>
	<path class="st2" d="M54.6,97.5v-4.8H56c1.8,0,2.7,0.8,2.7,2.3c0,0.7-0.2,1.3-0.7,1.8c-0.5,0.5-1.2,0.7-2,0.7H54.6z M55.4,93.3v3.5
		H56c0.6,0,1-0.2,1.3-0.5s0.5-0.7,0.5-1.3c0-1.1-0.6-1.7-1.7-1.7H55.4z"/>
	<path class="st2" d="M64.8,97.3c-0.4,0.2-0.8,0.3-1.3,0.3c-0.7,0-1.3-0.2-1.7-0.7c-0.4-0.4-0.6-1-0.6-1.7c0-0.8,0.2-1.4,0.7-1.9
		s1.1-0.7,1.8-0.7c0.5,0,0.8,0.1,1.2,0.2v0.8c-0.3-0.2-0.7-0.3-1.1-0.3c-0.5,0-0.9,0.2-1.3,0.5c-0.3,0.3-0.5,0.8-0.5,1.3
		c0,0.5,0.2,1,0.5,1.3c0.3,0.3,0.7,0.5,1.2,0.5c0.5,0,0.8-0.1,1.2-0.3V97.3z"/>
	<path class="st2" d="M67.1,97.5c-0.5,0-1-0.2-1.3-0.5s-0.5-0.7-0.5-1.3c0-0.6,0.2-1,0.5-1.3c0.3-0.3,0.8-0.5,1.3-0.5
		c0.5,0,1,0.2,1.3,0.5c0.3,0.3,0.4,0.8,0.4,1.3c0,0.5-0.2,1-0.5,1.3C68.1,97.4,67.7,97.5,67.1,97.5z M67.1,94.6
		c-0.3,0-0.5,0.1-0.7,0.3s-0.3,0.5-0.3,0.9c0,0.4,0.1,0.6,0.3,0.8c0.2,0.2,0.4,0.3,0.7,0.3c0.3,0,0.5-0.1,0.7-0.3s0.2-0.5,0.2-0.9
		c0-0.4-0.1-0.7-0.2-0.9C67.7,94.7,67.5,94.6,67.1,94.6z"/>
	<path class="st2" d="M72.7,97.5H72v-1.9c0-0.6-0.2-1-0.7-1c-0.2,0-0.4,0.1-0.6,0.3c-0.2,0.2-0.2,0.4-0.2,0.7v2h-0.8V94h0.8v0.6h0
		c0.3-0.4,0.6-0.7,1.1-0.7c0.4,0,0.7,0.1,0.9,0.4c0.2,0.2,0.3,0.6,0.3,1V97.5z"/>
	<path class="st2" d="M75.5,97.4c-0.2,0.1-0.4,0.1-0.6,0.1c-0.7,0-1-0.3-1-1v-1.9h-0.6V94h0.6v-0.8l0.8-0.2v1h0.8v0.6h-0.8v1.7
		c0,0.2,0,0.3,0.1,0.4c0.1,0.1,0.2,0.1,0.4,0.1c0.1,0,0.2,0,0.3-0.1V97.4z"/>
	<path class="st2" d="M78.8,97.5h-0.8v-0.5h0c-0.2,0.4-0.6,0.6-1,0.6c-0.3,0-0.6-0.1-0.8-0.3c-0.2-0.2-0.3-0.4-0.3-0.7
		c0-0.6,0.4-1,1.1-1.1l1-0.1c0-0.5-0.2-0.7-0.7-0.7c-0.4,0-0.8,0.1-1.1,0.4v-0.7c0.4-0.2,0.8-0.3,1.3-0.3c0.9,0,1.3,0.4,1.3,1.3
		V97.5z M78.1,95.8l-0.7,0.1c-0.2,0-0.4,0.1-0.5,0.2c-0.1,0.1-0.2,0.2-0.2,0.4c0,0.1,0.1,0.3,0.2,0.4c0.1,0.1,0.2,0.1,0.4,0.1
		c0.2,0,0.4-0.1,0.6-0.2s0.2-0.4,0.2-0.6V95.8z"/>
	<path class="st2" d="M80.1,93.3c-0.1,0-0.2,0-0.3-0.1s-0.1-0.2-0.1-0.3c0-0.1,0-0.2,0.1-0.3s0.2-0.1,0.3-0.1c0.1,0,0.2,0,0.3,0.1
		c0.1,0.1,0.1,0.2,0.1,0.3c0,0.1,0,0.2-0.1,0.3C80.4,93.3,80.3,93.3,80.1,93.3z M80.5,97.5h-0.8V94h0.8V97.5z"/>
	<path class="st2" d="M84.6,97.5h-0.8v-1.9c0-0.6-0.2-1-0.7-1c-0.2,0-0.4,0.1-0.6,0.3c-0.2,0.2-0.2,0.4-0.2,0.7v2h-0.8V94h0.8v0.6h0
		c0.3-0.4,0.6-0.7,1.1-0.7c0.4,0,0.7,0.1,0.9,0.4c0.2,0.2,0.3,0.6,0.3,1V97.5z"/>
	<path class="st2" d="M88.5,96h-2.3c0,0.3,0.1,0.6,0.3,0.7s0.4,0.3,0.8,0.3c0.4,0,0.7-0.1,1-0.3v0.6c-0.3,0.2-0.7,0.3-1.2,0.3
		c-0.5,0-0.9-0.2-1.2-0.5c-0.3-0.3-0.4-0.8-0.4-1.3c0-0.5,0.2-1,0.5-1.3c0.3-0.3,0.7-0.5,1.2-0.5s0.8,0.2,1.1,0.5
		c0.3,0.3,0.4,0.7,0.4,1.3V96z M87.7,95.4c0-0.3-0.1-0.5-0.2-0.7c-0.1-0.2-0.3-0.2-0.5-0.2c-0.2,0-0.4,0.1-0.6,0.2
		c-0.2,0.2-0.3,0.4-0.3,0.6H87.7z"/>
	<path class="st2" d="M91.2,94.8c-0.1-0.1-0.2-0.1-0.4-0.1c-0.2,0-0.4,0.1-0.6,0.3C90,95.2,90,95.5,90,95.8v1.6h-0.8V94H90v0.7h0
		c0.1-0.2,0.2-0.4,0.3-0.6c0.2-0.1,0.3-0.2,0.5-0.2c0.1,0,0.2,0,0.3,0.1V94.8z"/>
	<path class="st2" d="M50.7,105.5v-0.7c0.3,0.2,0.7,0.4,1.1,0.4c0.3,0,0.6-0.1,0.8-0.2c0.2-0.1,0.3-0.3,0.3-0.6
		c0-0.5-0.4-0.8-1.3-0.8h-0.4v-0.6h0.4c0.7,0,1.1-0.3,1.1-0.8c0-0.5-0.3-0.7-0.9-0.7c-0.3,0-0.6,0.1-0.9,0.3v-0.7
		c0.3-0.2,0.7-0.3,1.2-0.3c0.4,0,0.8,0.1,1,0.3s0.4,0.5,0.4,0.8c0,0.6-0.3,1-1,1.2v0c0.3,0,0.6,0.2,0.8,0.4c0.2,0.2,0.3,0.5,0.3,0.8
		c0,0.4-0.2,0.8-0.5,1c-0.3,0.3-0.8,0.4-1.3,0.4C51.3,105.8,51,105.7,50.7,105.5z"/>
	<path class="st2" d="M54.6,105.7v-4.8H56c1.8,0,2.7,0.8,2.7,2.3c0,0.7-0.2,1.3-0.7,1.8c-0.5,0.5-1.2,0.7-2,0.7H54.6z M55.4,101.6
		v3.5H56c0.6,0,1-0.2,1.3-0.5s0.5-0.7,0.5-1.3c0-1.1-0.6-1.7-1.7-1.7H55.4z"/>
	<path class="st2" d="M66.6,105.7h-0.8v-3.1c0-0.3,0-0.6,0-0.9h0c0,0.2-0.1,0.4-0.1,0.5l-1.4,3.6h-0.5l-1.4-3.6
		c0-0.1-0.1-0.3-0.1-0.5h0c0,0.2,0,0.5,0,0.9v3.1h-0.7v-4.8h1.1l1.3,3.2c0.1,0.2,0.2,0.4,0.2,0.5h0c0.1-0.3,0.2-0.4,0.2-0.6l1.3-3.2
		h1.1V105.7z"/>
	<path class="st2" d="M69.2,105.8c-0.5,0-1-0.2-1.3-0.5s-0.5-0.7-0.5-1.3c0-0.6,0.2-1,0.5-1.3c0.3-0.3,0.8-0.5,1.3-0.5
		c0.5,0,1,0.2,1.3,0.5c0.3,0.3,0.4,0.8,0.4,1.3c0,0.5-0.2,1-0.5,1.3C70.2,105.6,69.7,105.8,69.2,105.8z M69.2,102.8
		c-0.3,0-0.5,0.1-0.7,0.3s-0.3,0.5-0.3,0.9c0,0.4,0.1,0.6,0.3,0.8c0.2,0.2,0.4,0.3,0.7,0.3c0.3,0,0.5-0.1,0.7-0.3s0.2-0.5,0.2-0.9
		c0-0.4-0.1-0.7-0.2-0.9C69.8,102.9,69.5,102.8,69.2,102.8z"/>
	<path class="st2" d="M74.9,105.7h-0.8v-0.6h0c-0.3,0.4-0.6,0.7-1.2,0.7c-0.4,0-0.8-0.2-1-0.5c-0.3-0.3-0.4-0.7-0.4-1.3
		c0-0.6,0.1-1,0.4-1.4s0.7-0.5,1.1-0.5c0.5,0,0.8,0.2,1,0.6h0v-2.1h0.8V105.7z M74.1,104.1v-0.4c0-0.2-0.1-0.5-0.2-0.6
		s-0.4-0.3-0.6-0.3c-0.3,0-0.5,0.1-0.7,0.3c-0.2,0.2-0.2,0.5-0.2,0.9c0,0.3,0.1,0.6,0.2,0.8c0.2,0.2,0.4,0.3,0.6,0.3
		c0.3,0,0.5-0.1,0.6-0.3C74,104.7,74.1,104.4,74.1,104.1z"/>
	<path class="st2" d="M78.8,104.2h-2.3c0,0.3,0.1,0.6,0.3,0.7s0.4,0.3,0.8,0.3c0.4,0,0.7-0.1,1-0.3v0.6c-0.3,0.2-0.7,0.3-1.2,0.3
		c-0.5,0-0.9-0.2-1.2-0.5c-0.3-0.3-0.4-0.8-0.4-1.3c0-0.5,0.2-1,0.5-1.3c0.3-0.3,0.7-0.5,1.2-0.5s0.8,0.2,1.1,0.5
		c0.3,0.3,0.4,0.7,0.4,1.3V104.2z M78.1,103.6c0-0.3-0.1-0.5-0.2-0.7c-0.1-0.2-0.3-0.2-0.5-0.2c-0.2,0-0.4,0.1-0.6,0.2
		c-0.2,0.2-0.3,0.4-0.3,0.6H78.1z"/>
	<path class="st2" d="M80.3,105.7h-0.8v-5.1h0.8V105.7z"/>
	<path class="st2" d="M83.1,104.1h-1.8v-0.6h1.8V104.1z"/>
	<path class="st2" d="M87,105.7h-2.9v-0.6h1v-3.4l-1.1,0.3v-0.7l1.8-0.5v4.3h1V105.7z"/>
	<path class="st2" d="M52.5,113.9c-0.2,0.1-0.4,0.1-0.6,0.1c-0.7,0-1-0.3-1-1v-1.9h-0.6v-0.6h0.6v-0.8l0.8-0.2v1h0.8v0.6h-0.8v1.7
		c0,0.2,0,0.3,0.1,0.4c0.1,0.1,0.2,0.1,0.4,0.1c0.1,0,0.2,0,0.3-0.1V113.9z"/>
	<path class="st2" d="M56.2,113.9h-0.8v-1.9c0-0.7-0.2-1-0.7-1c-0.2,0-0.4,0.1-0.6,0.3c-0.2,0.2-0.2,0.4-0.2,0.8v1.8h-0.8v-5.1H54
		v2.2h0c0.3-0.4,0.6-0.7,1.1-0.7c0.8,0,1.1,0.5,1.1,1.4V113.9z"/>
	<path class="st2" d="M57.6,109.8c-0.1,0-0.2,0-0.3-0.1s-0.1-0.2-0.1-0.3c0-0.1,0-0.2,0.1-0.3s0.2-0.1,0.3-0.1c0.1,0,0.2,0,0.3,0.1
		c0.1,0.1,0.1,0.2,0.1,0.3c0,0.1,0,0.2-0.1,0.3C57.8,109.7,57.7,109.8,57.6,109.8z M58,113.9h-0.8v-3.4H58V113.9z"/>
	<path class="st2" d="M62,113.9h-0.8V112c0-0.6-0.2-1-0.7-1c-0.2,0-0.4,0.1-0.6,0.3c-0.2,0.2-0.2,0.4-0.2,0.7v2H59v-3.4h0.8v0.6h0
		c0.3-0.4,0.6-0.7,1.1-0.7c0.4,0,0.7,0.1,0.9,0.4c0.2,0.2,0.3,0.6,0.3,1V113.9z"/>
	<path class="st2" d="M66.1,113.7c0,1.3-0.6,1.9-1.9,1.9c-0.4,0-0.8-0.1-1.2-0.2v-0.7c0.4,0.2,0.7,0.3,1.1,0.3
		c0.8,0,1.2-0.4,1.2-1.2v-0.4h0c-0.3,0.4-0.6,0.7-1.2,0.7c-0.4,0-0.8-0.2-1-0.5c-0.3-0.3-0.4-0.7-0.4-1.2c0-0.6,0.1-1,0.4-1.4
		c0.3-0.3,0.7-0.5,1.1-0.5c0.5,0,0.8,0.2,1,0.6h0v-0.5h0.8V113.7z M65.3,112.4v-0.4c0-0.2-0.1-0.4-0.2-0.6c-0.2-0.2-0.4-0.3-0.6-0.3
		c-0.3,0-0.5,0.1-0.7,0.3c-0.2,0.2-0.2,0.5-0.2,0.9c0,0.3,0.1,0.6,0.2,0.8c0.2,0.2,0.4,0.3,0.6,0.3c0.3,0,0.5-0.1,0.7-0.3
		C65.2,112.9,65.3,112.7,65.3,112.4z"/>
	<path class="st2" d="M72.2,113.9h-0.8v-1.9c0-0.4-0.1-0.6-0.2-0.8S71,111,70.8,111c-0.2,0-0.4,0.1-0.5,0.3s-0.2,0.4-0.2,0.7v1.9
		h-0.8V112c0-0.6-0.2-1-0.7-1c-0.2,0-0.4,0.1-0.5,0.3c-0.1,0.2-0.2,0.4-0.2,0.7v1.9h-0.8v-3.4h0.8v0.5h0c0.2-0.4,0.6-0.6,1.1-0.6
		c0.2,0,0.4,0.1,0.6,0.2c0.2,0.1,0.3,0.3,0.4,0.5c0.3-0.5,0.6-0.7,1.1-0.7c0.8,0,1.1,0.5,1.1,1.4V113.9z"/>
	<path class="st2" d="M75.8,113.9h-0.8v-0.5h0c-0.2,0.4-0.6,0.6-1,0.6c-0.3,0-0.6-0.1-0.8-0.3c-0.2-0.2-0.3-0.4-0.3-0.7
		c0-0.6,0.4-1,1.1-1.1l1-0.1c0-0.5-0.2-0.7-0.7-0.7c-0.4,0-0.8,0.1-1.1,0.4v-0.7c0.4-0.2,0.8-0.3,1.3-0.3c0.9,0,1.3,0.4,1.3,1.3
		V113.9z M75.1,112.3l-0.7,0.1c-0.2,0-0.4,0.1-0.5,0.2c-0.1,0.1-0.2,0.2-0.2,0.4c0,0.1,0.1,0.3,0.2,0.4c0.1,0.1,0.2,0.1,0.4,0.1
		c0.2,0,0.4-0.1,0.6-0.2s0.2-0.4,0.2-0.6V112.3z"/>
	<path class="st2" d="M78.8,111.2c-0.1-0.1-0.2-0.1-0.4-0.1c-0.2,0-0.4,0.1-0.6,0.3c-0.2,0.2-0.2,0.5-0.2,0.8v1.6h-0.8v-3.4h0.8v0.7
		h0c0.1-0.2,0.2-0.4,0.3-0.6c0.2-0.1,0.3-0.2,0.5-0.2c0.1,0,0.2,0,0.3,0.1V111.2z"/>
	<path class="st2" d="M82.4,113.9h-1l-1.3-1.6h0v1.6h-0.8v-5.1h0.8v3.2h0l1.3-1.6h0.9l-1.4,1.7L82.4,113.9z"/>
	<path class="st2" d="M84.3,112.3h-1.8v-0.6h1.8V112.3z"/>
	<path class="st2" d="M88.2,113.9h-2.9v-0.6h1v-3.4l-1.1,0.3v-0.7l1.8-0.5v4.3h1V113.9z"/>
	<path class="st2" d="M50.7,122v-0.7c0.3,0.2,0.7,0.4,1.1,0.4c0.3,0,0.6-0.1,0.8-0.2c0.2-0.1,0.3-0.3,0.3-0.6c0-0.5-0.4-0.8-1.3-0.8
		h-0.4v-0.6h0.4c0.7,0,1.1-0.3,1.1-0.8c0-0.5-0.3-0.7-0.9-0.7c-0.3,0-0.6,0.1-0.9,0.3v-0.7c0.3-0.2,0.7-0.3,1.2-0.3
		c0.4,0,0.8,0.1,1,0.3s0.4,0.5,0.4,0.8c0,0.6-0.3,1-1,1.2v0c0.3,0,0.6,0.2,0.8,0.4c0.2,0.2,0.3,0.5,0.3,0.8c0,0.4-0.2,0.8-0.5,1
		c-0.3,0.3-0.8,0.4-1.3,0.4C51.3,122.3,51,122.2,50.7,122z"/>
	<path class="st2" d="M54.6,122.2v-4.8H56c1.8,0,2.7,0.8,2.7,2.3c0,0.7-0.2,1.3-0.7,1.8c-0.5,0.5-1.2,0.7-2,0.7H54.6z M55.4,118v3.5
		H56c0.6,0,1-0.2,1.3-0.5s0.5-0.7,0.5-1.3c0-1.1-0.6-1.7-1.7-1.7H55.4z"/>
	<path class="st2" d="M59.3,122v-0.8c0.1,0.1,0.2,0.1,0.3,0.2s0.2,0.1,0.3,0.1c0.1,0,0.2,0.1,0.3,0.1c0.1,0,0.2,0,0.3,0
		c0.3,0,0.6-0.1,0.7-0.2c0.2-0.1,0.2-0.3,0.2-0.5c0-0.1,0-0.2-0.1-0.3s-0.1-0.2-0.2-0.2c-0.1-0.1-0.2-0.1-0.3-0.2
		c-0.1-0.1-0.3-0.1-0.4-0.2c-0.2-0.1-0.3-0.2-0.5-0.3c-0.1-0.1-0.3-0.2-0.4-0.3c-0.1-0.1-0.2-0.2-0.2-0.4c-0.1-0.1-0.1-0.3-0.1-0.5
		c0-0.2,0.1-0.4,0.2-0.6c0.1-0.2,0.2-0.3,0.4-0.4c0.2-0.1,0.4-0.2,0.6-0.2c0.2-0.1,0.4-0.1,0.6-0.1c0.5,0,0.9,0.1,1.1,0.2v0.8
		c-0.3-0.2-0.6-0.3-1.1-0.3c-0.1,0-0.2,0-0.4,0c-0.1,0-0.2,0.1-0.3,0.1c-0.1,0.1-0.2,0.1-0.2,0.2c-0.1,0.1-0.1,0.2-0.1,0.3
		c0,0.1,0,0.2,0.1,0.3s0.1,0.1,0.2,0.2c0.1,0.1,0.2,0.1,0.3,0.2s0.3,0.1,0.4,0.2c0.2,0.1,0.3,0.2,0.5,0.3s0.3,0.2,0.4,0.3
		c0.1,0.1,0.2,0.2,0.3,0.4c0.1,0.1,0.1,0.3,0.1,0.5c0,0.2,0,0.4-0.1,0.6c-0.1,0.2-0.2,0.3-0.4,0.4s-0.4,0.2-0.6,0.2
		c-0.2,0-0.4,0.1-0.7,0.1c-0.1,0-0.2,0-0.3,0c-0.1,0-0.2,0-0.4-0.1c-0.1,0-0.2-0.1-0.3-0.1S59.4,122,59.3,122z"/>
	<path class="st2" d="M66.1,120.7h-2.3c0,0.3,0.1,0.6,0.3,0.7s0.4,0.3,0.8,0.3c0.4,0,0.7-0.1,1-0.3v0.6c-0.3,0.2-0.7,0.3-1.2,0.3
		c-0.5,0-0.9-0.2-1.2-0.5c-0.3-0.3-0.4-0.8-0.4-1.3c0-0.5,0.2-1,0.5-1.3c0.3-0.3,0.7-0.5,1.2-0.5s0.8,0.2,1.1,0.5
		c0.3,0.3,0.4,0.7,0.4,1.3V120.7z M65.3,120.1c0-0.3-0.1-0.5-0.2-0.7c-0.1-0.2-0.3-0.2-0.5-0.2c-0.2,0-0.4,0.1-0.6,0.2
		c-0.2,0.2-0.3,0.4-0.3,0.6H65.3z"/>
	<path class="st2" d="M69.9,122.2h-0.8v-1.9c0-0.6-0.2-1-0.7-1c-0.2,0-0.4,0.1-0.6,0.3c-0.2,0.2-0.2,0.4-0.2,0.7v2h-0.8v-3.4h0.8
		v0.6h0c0.3-0.4,0.6-0.7,1.1-0.7c0.4,0,0.7,0.1,0.9,0.4c0.2,0.2,0.3,0.6,0.3,1V122.2z"/>
	<path class="st2" d="M70.6,122.1v-0.7c0.3,0.2,0.6,0.3,1,0.3c0.5,0,0.7-0.1,0.7-0.4c0-0.1,0-0.1-0.1-0.2s-0.1-0.1-0.2-0.1
		c-0.1,0-0.1-0.1-0.2-0.1c-0.1,0-0.2-0.1-0.3-0.1c-0.1-0.1-0.3-0.1-0.4-0.2c-0.1-0.1-0.2-0.1-0.3-0.2c-0.1-0.1-0.1-0.2-0.2-0.3
		s-0.1-0.2-0.1-0.4c0-0.2,0-0.3,0.1-0.4s0.2-0.2,0.3-0.3c0.1-0.1,0.3-0.2,0.4-0.2c0.2,0,0.3-0.1,0.5-0.1c0.3,0,0.6,0,0.9,0.1v0.7
		c-0.2-0.2-0.5-0.2-0.8-0.2c-0.1,0-0.2,0-0.3,0c-0.1,0-0.1,0-0.2,0.1c-0.1,0-0.1,0.1-0.1,0.1c0,0.1,0,0.1,0,0.2c0,0.1,0,0.1,0,0.2
		c0,0.1,0.1,0.1,0.1,0.1s0.1,0.1,0.2,0.1s0.2,0.1,0.3,0.1c0.1,0.1,0.3,0.1,0.4,0.2s0.2,0.1,0.3,0.2c0.1,0.1,0.1,0.2,0.2,0.3
		s0.1,0.2,0.1,0.4c0,0.2,0,0.3-0.1,0.5c-0.1,0.1-0.2,0.2-0.3,0.3s-0.3,0.1-0.5,0.2c-0.2,0-0.4,0.1-0.6,0.1
		C71.2,122.3,70.9,122.2,70.6,122.1z"/>
	<path class="st2" d="M75.3,122.3c-0.5,0-1-0.2-1.3-0.5s-0.5-0.7-0.5-1.3c0-0.6,0.2-1,0.5-1.3c0.3-0.3,0.8-0.5,1.3-0.5
		c0.5,0,1,0.2,1.3,0.5c0.3,0.3,0.4,0.8,0.4,1.3c0,0.5-0.2,1-0.5,1.3C76.3,122.1,75.9,122.3,75.3,122.3z M75.3,119.3
		c-0.3,0-0.5,0.1-0.7,0.3s-0.3,0.5-0.3,0.9c0,0.4,0.1,0.6,0.3,0.8c0.2,0.2,0.4,0.3,0.7,0.3c0.3,0,0.5-0.1,0.7-0.3s0.2-0.5,0.2-0.9
		c0-0.4-0.1-0.7-0.2-0.9C75.9,119.4,75.7,119.3,75.3,119.3z"/>
	<path class="st2" d="M79.9,119.5c-0.1-0.1-0.2-0.1-0.4-0.1c-0.2,0-0.4,0.1-0.6,0.3c-0.2,0.2-0.2,0.5-0.2,0.8v1.6h-0.8v-3.4h0.8v0.7
		h0c0.1-0.2,0.2-0.4,0.3-0.6c0.2-0.1,0.3-0.2,0.5-0.2c0.1,0,0.2,0,0.3,0.1V119.5z"/>
</g>
<rect x="23" y="12.5" class="st8" width="78" height="11.5"/>
<g>
	<path class="st2" d="M48.4,19.3V21h-0.8v-4.8h1.5c0.6,0,1,0.1,1.3,0.4c0.3,0.3,0.5,0.6,0.5,1.1s-0.2,0.8-0.5,1.1
		c-0.3,0.3-0.7,0.4-1.3,0.4H48.4z M48.4,16.9v1.8h0.5c0.3,0,0.6-0.1,0.8-0.2c0.2-0.2,0.3-0.4,0.3-0.7c0-0.6-0.3-0.8-1-0.8H48.4z"/>
	<path class="st2" d="M55.9,21h-0.9l-0.8-1.3c-0.1-0.1-0.1-0.2-0.2-0.3c-0.1-0.1-0.1-0.2-0.2-0.2s-0.1-0.1-0.2-0.1
		c-0.1,0-0.2,0-0.3,0h-0.3v2h-0.8v-4.8h1.6c0.2,0,0.4,0,0.6,0.1c0.2,0.1,0.4,0.1,0.5,0.2s0.3,0.2,0.3,0.4c0.1,0.2,0.1,0.4,0.1,0.6
		c0,0.2,0,0.3-0.1,0.5c0,0.1-0.1,0.3-0.2,0.4s-0.2,0.2-0.3,0.3c-0.1,0.1-0.3,0.1-0.4,0.2v0c0.1,0,0.2,0.1,0.2,0.2
		c0.1,0.1,0.1,0.1,0.2,0.2c0.1,0.1,0.1,0.1,0.2,0.2s0.1,0.2,0.2,0.3L55.9,21z M52.9,16.8v1.6h0.7c0.1,0,0.2,0,0.3-0.1
		s0.2-0.1,0.3-0.2c0.1-0.1,0.1-0.2,0.2-0.3c0-0.1,0.1-0.2,0.1-0.3c0-0.2-0.1-0.4-0.2-0.5c-0.1-0.1-0.4-0.2-0.6-0.2H52.9z"/>
	<path class="st2" d="M58.9,21.1c-0.7,0-1.2-0.2-1.7-0.7c-0.4-0.4-0.6-1-0.6-1.8c0-0.8,0.2-1.4,0.6-1.8c0.4-0.5,1-0.7,1.7-0.7
		c0.7,0,1.2,0.2,1.6,0.7c0.4,0.4,0.6,1,0.6,1.8c0,0.8-0.2,1.4-0.6,1.9C60.2,20.9,59.6,21.1,58.9,21.1z M58.9,16.8
		c-0.4,0-0.8,0.2-1.1,0.5c-0.3,0.3-0.4,0.8-0.4,1.3c0,0.5,0.1,1,0.4,1.3c0.3,0.3,0.6,0.5,1.1,0.5c0.5,0,0.8-0.2,1.1-0.5
		c0.3-0.3,0.4-0.7,0.4-1.3c0-0.6-0.1-1-0.4-1.3C59.7,17,59.4,16.8,58.9,16.8z"/>
	<path class="st2" d="M64.2,19.3c0,0.6-0.1,1-0.4,1.3s-0.7,0.5-1.1,0.5c-0.2,0-0.4,0-0.5-0.1v-0.8c0.1,0.1,0.3,0.1,0.5,0.1
		c0.5,0,0.8-0.4,0.8-1.2v-3h0.8V19.3z"/>
	<path class="st2" d="M68.6,21h-2.7v-4.8h2.6v0.7h-1.8v1.4h1.7v0.7h-1.7v1.4h1.9V21z"/>
	<path class="st2" d="M73.3,20.8C73,21,72.5,21.1,72,21.1c-0.7,0-1.3-0.2-1.7-0.7c-0.4-0.4-0.6-1-0.6-1.7c0-0.8,0.2-1.4,0.7-1.9
		s1.1-0.7,1.8-0.7c0.5,0,0.8,0.1,1.2,0.2v0.8c-0.3-0.2-0.7-0.3-1.1-0.3c-0.5,0-0.9,0.2-1.3,0.5c-0.3,0.3-0.5,0.8-0.5,1.3
		c0,0.5,0.2,1,0.5,1.3c0.3,0.3,0.7,0.5,1.2,0.5c0.5,0,0.8-0.1,1.2-0.3V20.8z"/>
	<path class="st2" d="M77.9,16.9h-1.4V21h-0.8v-4.1h-1.4v-0.7h3.6V16.9z"/>
</g>
<path class="st9" d="M126,152.7L113.4,135l12.6-2.9L92.1,103l7.1,44.9l8.8-9.8l8.8,19.9L126,152.7z"/>
</svg>
