<?xml version="1.0" encoding="utf-8"?>
<!-- Generator: Adobe Illustrator 20.1.0, SVG Export Plug-In . SVG Version: 6.00 Build 0)  -->
<svg version="1.1" id="Layer_1" xmlns="http://www.w3.org/2000/svg" xmlns:xlink="http://www.w3.org/1999/xlink" x="0px" y="0px"
	 viewBox="0 0 137.8 170" style="enable-background:new 0 0 137.8 170;" xml:space="preserve">
<style type="text/css">
	.st0{fill:#FFFFFF;stroke:#808285;stroke-miterlimit:10;}
	.st1{fill:#4D4D4F;stroke:#808285;stroke-miterlimit:10;}
	.st2{enable-background:new    ;}
	.st3{fill:#FFFFFF;}
	.st4{fill:#231F20;}
	.st5{fill:#5CB647;}
	.st6{fill:none;}
	.st7{fill:#FFFFFF;stroke:#231F20;stroke-width:2;stroke-miterlimit:10;}
	.st8{fill:#FFFFFF;stroke:#D1D3D4;stroke-miterlimit:10;}
	.st9{fill:#4BB73B;stroke:#D1D3D4;stroke-miterlimit:10;}
	.st10{fill:#FFFFFF;stroke:#FFFFFF;stroke-miterlimit:10;}
</style>
<title>Illustration_6resource</title>
<polygon class="st0" points="99.9,130.8 15.7,130.8 15.7,23.8 103.3,23.8 "/>
<polygon class="st1" points="102.3,34.5 15.5,35 15.5,23 103.8,24 "/>
<g class="st2">
	<path class="st3" d="M39.2,30.1v2.1h-1.4v-6.1H40c1.5,0,2.3,0.6,2.3,1.9c0,0.6-0.2,1.1-0.7,1.5c-0.4,0.4-1,0.6-1.8,0.6H39.2z
		 M39.2,27.2v1.9h0.5c0.7,0,1.1-0.3,1.1-1c0-0.6-0.4-0.9-1.1-0.9H39.2z"/>
</g>
<g class="st2">
	<path class="st3" d="M48,32.2h-1.6l-0.9-1.6c-0.1-0.1-0.1-0.2-0.2-0.3c-0.1-0.1-0.1-0.2-0.2-0.2S45,30,44.9,29.9
		c-0.1,0-0.2-0.1-0.2-0.1h-0.4v2.3h-1.4v-6.1h2.2c1.5,0,2.2,0.6,2.2,1.7c0,0.2,0,0.4-0.1,0.6c-0.1,0.2-0.2,0.3-0.3,0.5
		c-0.1,0.1-0.3,0.3-0.4,0.4c-0.2,0.1-0.4,0.2-0.6,0.2v0c0.1,0,0.2,0.1,0.3,0.1c0.1,0.1,0.2,0.1,0.2,0.2s0.2,0.2,0.2,0.3
		c0.1,0.1,0.1,0.2,0.2,0.3L48,32.2z M44.3,27.2v1.7h0.6c0.3,0,0.5-0.1,0.7-0.3c0.2-0.2,0.3-0.4,0.3-0.6c0-0.5-0.3-0.8-1-0.8H44.3z"
		/>
</g>
<g class="st2">
	<path class="st3" d="M50.8,32.3c-0.9,0-1.6-0.3-2.1-0.8c-0.5-0.6-0.8-1.3-0.8-2.2c0-1,0.3-1.7,0.8-2.3c0.6-0.6,1.3-0.9,2.2-0.9
		c0.9,0,1.6,0.3,2.1,0.9c0.5,0.6,0.8,1.3,0.8,2.2c0,1-0.3,1.7-0.8,2.3S51.7,32.3,50.8,32.3z M50.9,27.2c-0.5,0-0.9,0.2-1.1,0.5
		c-0.3,0.4-0.4,0.8-0.4,1.4c0,0.6,0.1,1.1,0.4,1.4c0.3,0.4,0.7,0.5,1.1,0.5c0.5,0,0.8-0.2,1.1-0.5c0.3-0.3,0.4-0.8,0.4-1.4
		c0-0.6-0.1-1.1-0.4-1.5S51.3,27.2,50.9,27.2z"/>
</g>
<g class="st2">
	<path class="st3" d="M56.1,30.1v2.1h-1.4v-6.1h2.1c1.5,0,2.3,0.6,2.3,1.9c0,0.6-0.2,1.1-0.7,1.5c-0.4,0.4-1,0.6-1.8,0.6H56.1z
		 M56.1,27.2v1.9h0.5c0.7,0,1.1-0.3,1.1-1c0-0.6-0.4-0.9-1.1-0.9H56.1z"/>
	<path class="st3" d="M63.7,32.2h-3.6v-6.1h3.5v1.1h-2.1v1.4h2v1.1h-2v1.4h2.3V32.2z"/>
	<path class="st3" d="M69.8,32.2h-1.6l-0.9-1.6c-0.1-0.1-0.1-0.2-0.2-0.3c-0.1-0.1-0.1-0.2-0.2-0.2s-0.1-0.1-0.2-0.2
		c-0.1,0-0.2-0.1-0.2-0.1h-0.4v2.3h-1.4v-6.1h2.2c1.5,0,2.2,0.6,2.2,1.7c0,0.2,0,0.4-0.1,0.6s-0.2,0.3-0.3,0.5s-0.3,0.3-0.4,0.4
		c-0.2,0.1-0.4,0.2-0.6,0.2v0c0.1,0,0.2,0.1,0.3,0.1c0.1,0.1,0.2,0.1,0.2,0.2s0.2,0.2,0.2,0.3c0.1,0.1,0.1,0.2,0.2,0.3L69.8,32.2z
		 M66.1,27.2v1.7h0.6c0.3,0,0.5-0.1,0.7-0.3c0.2-0.2,0.3-0.4,0.3-0.6c0-0.5-0.3-0.8-1-0.8H66.1z"/>
	<path class="st3" d="M74.5,27.2h-1.7v5h-1.4v-5h-1.7v-1.1h4.8V27.2z"/>
	<path class="st3" d="M77.2,26.1v1.1h-0.5v4h0.5v1.1h-2.4v-1.1h0.5v-4h-0.5v-1.1H77.2z"/>
	<path class="st3" d="M81.7,32.2H78v-6.1h3.5v1.1h-2.1v1.4h2v1.1h-2v1.4h2.3V32.2z"/>
	<path class="st3" d="M82.4,32v-1.4c0.2,0.2,0.5,0.4,0.8,0.5c0.3,0.1,0.6,0.2,0.9,0.2c0.2,0,0.3,0,0.5,0c0.1,0,0.2-0.1,0.3-0.1
		s0.2-0.1,0.2-0.2c0-0.1,0.1-0.2,0.1-0.2c0-0.1,0-0.2-0.1-0.3c-0.1-0.1-0.2-0.2-0.3-0.3s-0.3-0.2-0.4-0.2c-0.2-0.1-0.3-0.1-0.5-0.2
		c-0.5-0.2-0.8-0.4-1.1-0.7c-0.2-0.3-0.3-0.6-0.3-1c0-0.3,0.1-0.6,0.2-0.8s0.3-0.4,0.5-0.6c0.2-0.1,0.5-0.3,0.8-0.3
		c0.3-0.1,0.6-0.1,0.9-0.1c0.3,0,0.6,0,0.8,0.1c0.2,0,0.5,0.1,0.7,0.2v1.3c-0.1-0.1-0.2-0.1-0.3-0.2s-0.2-0.1-0.4-0.1
		s-0.3-0.1-0.4-0.1c-0.1,0-0.2,0-0.4,0c-0.2,0-0.3,0-0.4,0c-0.1,0-0.2,0.1-0.3,0.1c-0.1,0.1-0.2,0.1-0.2,0.2c0,0.1-0.1,0.2-0.1,0.3
		c0,0.1,0,0.2,0.1,0.3c0.1,0.1,0.1,0.2,0.2,0.2s0.2,0.1,0.4,0.2c0.1,0.1,0.3,0.1,0.5,0.2c0.2,0.1,0.5,0.2,0.7,0.3
		c0.2,0.1,0.4,0.2,0.5,0.4c0.1,0.1,0.2,0.3,0.3,0.5c0.1,0.2,0.1,0.4,0.1,0.6c0,0.3-0.1,0.6-0.2,0.9c-0.1,0.2-0.3,0.4-0.5,0.6
		c-0.2,0.1-0.5,0.2-0.8,0.3c-0.3,0.1-0.6,0.1-0.9,0.1c-0.3,0-0.7,0-1-0.1S82.6,32.1,82.4,32z"/>
</g>
<g class="st2">
	<path class="st4" d="M25.9,62.4h-1.3l-0.8-1.3c-0.1-0.1-0.1-0.2-0.2-0.3c-0.1-0.1-0.1-0.1-0.2-0.2s-0.1-0.1-0.2-0.1
		c-0.1,0-0.1,0-0.2,0h-0.3v1.9h-1.1v-4.9h1.8c1.2,0,1.8,0.4,1.8,1.3c0,0.2,0,0.3-0.1,0.5c-0.1,0.1-0.1,0.3-0.2,0.4
		c-0.1,0.1-0.2,0.2-0.3,0.3c-0.1,0.1-0.3,0.2-0.5,0.2v0c0.1,0,0.1,0.1,0.2,0.1c0.1,0.1,0.1,0.1,0.2,0.2c0.1,0.1,0.1,0.1,0.2,0.2
		c0.1,0.1,0.1,0.2,0.2,0.2L25.9,62.4z M22.9,58.3v1.4h0.5c0.2,0,0.4-0.1,0.6-0.2c0.1-0.1,0.2-0.3,0.2-0.5c0-0.4-0.3-0.6-0.8-0.6
		H22.9z"/>
	<path class="st4" d="M29.3,62.4h-2.9v-4.9h2.8v0.9h-1.7v1.1h1.6v0.9h-1.6v1.1h1.8V62.4z"/>
	<path class="st4" d="M29.9,62.2v-1.1c0.2,0.2,0.4,0.3,0.6,0.4s0.5,0.1,0.7,0.1c0.1,0,0.3,0,0.4,0s0.2-0.1,0.3-0.1
		c0.1,0,0.1-0.1,0.2-0.2s0.1-0.1,0.1-0.2c0-0.1,0-0.2-0.1-0.3c-0.1-0.1-0.1-0.1-0.2-0.2c-0.1-0.1-0.2-0.1-0.3-0.2s-0.3-0.1-0.4-0.2
		c-0.4-0.2-0.7-0.4-0.9-0.6c-0.2-0.2-0.3-0.5-0.3-0.8c0-0.3,0.1-0.5,0.2-0.7s0.2-0.3,0.4-0.5c0.2-0.1,0.4-0.2,0.6-0.3
		s0.5-0.1,0.7-0.1c0.3,0,0.5,0,0.7,0c0.2,0,0.4,0.1,0.5,0.1v1c-0.1-0.1-0.2-0.1-0.3-0.2c-0.1,0-0.2-0.1-0.3-0.1s-0.2,0-0.3-0.1
		s-0.2,0-0.3,0c-0.1,0-0.2,0-0.3,0c-0.1,0-0.2,0.1-0.3,0.1c-0.1,0-0.1,0.1-0.2,0.2c0,0.1-0.1,0.1-0.1,0.2c0,0.1,0,0.2,0.1,0.2
		c0,0.1,0.1,0.1,0.2,0.2c0.1,0.1,0.2,0.1,0.3,0.2c0.1,0.1,0.2,0.1,0.4,0.2c0.2,0.1,0.4,0.2,0.5,0.3c0.2,0.1,0.3,0.2,0.4,0.3
		c0.1,0.1,0.2,0.2,0.3,0.4c0.1,0.1,0.1,0.3,0.1,0.5c0,0.3-0.1,0.5-0.2,0.7c-0.1,0.2-0.2,0.3-0.4,0.5s-0.4,0.2-0.6,0.2
		c-0.2,0.1-0.5,0.1-0.7,0.1c-0.3,0-0.5,0-0.8-0.1C30.3,62.4,30.1,62.3,29.9,62.2z"/>
	<path class="st4" d="M36.1,62.5c-0.7,0-1.3-0.2-1.7-0.7c-0.4-0.5-0.7-1.1-0.7-1.8c0-0.8,0.2-1.4,0.7-1.9c0.4-0.5,1-0.7,1.8-0.7
		c0.7,0,1.3,0.2,1.7,0.7c0.4,0.5,0.6,1.1,0.6,1.8c0,0.8-0.2,1.4-0.7,1.9C37.4,62.2,36.8,62.5,36.1,62.5z M36.2,58.3
		c-0.4,0-0.7,0.1-0.9,0.4c-0.2,0.3-0.3,0.7-0.3,1.2c0,0.5,0.1,0.9,0.3,1.2c0.2,0.3,0.5,0.4,0.9,0.4c0.4,0,0.7-0.1,0.9-0.4
		c0.2-0.3,0.3-0.7,0.3-1.1c0-0.5-0.1-0.9-0.3-1.2C36.8,58.5,36.5,58.3,36.2,58.3z"/>
	<path class="st4" d="M43.3,60.3c0,1.5-0.7,2.2-2.1,2.2c-1.3,0-2-0.7-2-2.2v-2.8h1.1v2.8c0,0.8,0.3,1.2,0.9,1.2
		c0.6,0,0.9-0.4,0.9-1.1v-2.9h1.1V60.3z"/>
</g>
<g class="st2">
	<path class="st4" d="M47.9,62.4h-1.3l-0.8-1.3c-0.1-0.1-0.1-0.2-0.2-0.3c-0.1-0.1-0.1-0.1-0.2-0.2s-0.1-0.1-0.2-0.1
		c-0.1,0-0.1,0-0.2,0h-0.3v1.9h-1.1v-4.9h1.8c1.2,0,1.8,0.4,1.8,1.3c0,0.2,0,0.3-0.1,0.5c-0.1,0.1-0.1,0.3-0.2,0.4
		c-0.1,0.1-0.2,0.2-0.3,0.3c-0.1,0.1-0.3,0.2-0.5,0.2v0c0.1,0,0.1,0.1,0.2,0.1c0.1,0.1,0.1,0.1,0.2,0.2c0.1,0.1,0.1,0.1,0.2,0.2
		c0.1,0.1,0.1,0.2,0.2,0.2L47.9,62.4z M44.9,58.3v1.4h0.5c0.2,0,0.4-0.1,0.6-0.2c0.1-0.1,0.2-0.3,0.2-0.5c0-0.4-0.3-0.6-0.8-0.6
		H44.9z"/>
</g>
<g class="st2">
	<path class="st4" d="M51.6,62.2c-0.4,0.2-0.8,0.3-1.4,0.3c-0.8,0-1.3-0.2-1.8-0.7c-0.4-0.4-0.6-1-0.6-1.8c0-0.8,0.2-1.4,0.7-1.9
		c0.5-0.5,1.1-0.7,1.9-0.7c0.5,0,0.9,0.1,1.2,0.2v1.1c-0.3-0.2-0.7-0.3-1.1-0.3c-0.5,0-0.8,0.1-1.1,0.4c-0.3,0.3-0.4,0.7-0.4,1.2
		c0,0.5,0.1,0.9,0.4,1.1s0.6,0.4,1.1,0.4c0.4,0,0.8-0.1,1.2-0.3V62.2z"/>
	<path class="st4" d="M55.4,62.4h-2.9v-4.9h2.8v0.9h-1.7v1.1h1.6v0.9h-1.6v1.1h1.8V62.4z"/>
</g>
<g class="st2">
	<path class="st5" d="M92.5,74.4V79h4.4v2h-4.4v4.6h-2.1v-4.6h-4.4v-2h4.4v-4.6H92.5z"/>
</g>
<line class="st6" x1="26.2" y1="44.2" x2="77.6" y2="43.6"/>
<line class="st6" x1="26.2" y1="53" x2="76.3" y2="54.5"/>
<g>
	<line class="st6" x1="26.7" y1="63.2" x2="75.1" y2="62.1"/>
</g>
<line class="st6" x1="26" y1="71.5" x2="77.2" y2="72.3"/>
<line class="st6" x1="25.7" y1="80.3" x2="77.2" y2="80.9"/>
<line class="st6" x1="26.2" y1="88.2" x2="76" y2="89.4"/>
<line class="st6" x1="26" y1="121.1" x2="75.4" y2="122.4"/>
<path class="st7" d="M129,133.4l-12.6-17.8l12.6-2.9L95.2,83.7l7.1,44.9l8.8-9.8l8.8,19.9L129,133.4z"/>
<rect class="st6" width="137.8" height="170"/>
<polygon class="st8" points="83.2,88.9 21.3,88.9 21,66.1 83.2,67.9 "/>
<polygon class="st9" points="83,88.6 68.4,88.5 67.5,67.8 83,67.6 "/>
<line class="st10" x1="71.3" y1="77.3" x2="76" y2="83"/>
<line class="st10" x1="80.3" y1="76.8" x2="75" y2="83"/>
</svg>
